<?xml version="1.0" encoding="UTF-8"?>
<svg version="1.1" xmlns="http://www.w3.org/2000/svg" width="455" height="549">
<path d="M0 0 C1.02827823 -0.01103006 2.05655646 -0.02206013 3.11599463 -0.03342444 C6.54260158 -0.06631831 9.968935 -0.07802866 13.39567566 -0.0894928 C15.86026867 -0.10830259 18.32485327 -0.12824439 20.78942871 -0.14923096 C28.16730482 -0.2067194 35.54510831 -0.23867782 42.92314222 -0.26541433 C46.40479047 -0.27859902 49.8864253 -0.29468919 53.36806297 -0.31038094 C64.95173327 -0.36137401 76.53539548 -0.40485748 88.11916065 -0.42662716 C91.118559 -0.43235592 94.11795727 -0.43811709 97.11735535 -0.44398499 C98.23545187 -0.44616182 98.23545187 -0.44616182 99.37613621 -0.44838262 C111.45382175 -0.4732896 123.53061661 -0.54932773 135.60791317 -0.64672702 C148.02937005 -0.74607992 160.45037457 -0.799985 172.87223071 -0.80955988 C179.83822354 -0.81604025 186.80291456 -0.84205987 193.76851845 -0.91894341 C200.3214129 -0.99110993 206.87239195 -1.0014575 213.42574883 -0.97065926 C215.82511815 -0.96917491 218.22460373 -0.98808766 220.62361908 -1.02932739 C240.6346493 -1.35397453 240.6346493 -1.35397453 247.26867551 4.78410286 C249.51971901 7.21281975 251.47099382 9.77333236 253.43156433 12.44151306 C256.46794322 13.9597025 259.6993014 13.85283573 263.03971863 14.07408142 C264.21833466 14.15726372 264.21833466 14.15726372 265.42076111 14.24212646 C267.13231231 14.36238992 268.8440022 14.48069155 270.55580711 14.59728813 C273.27818601 14.78288411 276.00014045 14.97385269 278.7220459 15.16625977 C285.49511861 15.64395695 292.26879418 16.11285906 299.04252625 16.58110046 C304.7470502 16.97566038 310.45127839 17.37409031 316.15517616 17.77760506 C318.81279084 17.9640859 321.47074302 18.14504064 324.12875366 18.32577515 C360.18224741 20.83430179 360.18224741 20.83430179 371.30656433 32.12901306 C375.85608702 36.54067143 381.67668445 37.24587194 387.64640808 38.55479431 C398.15082546 41.01558146 405.38240106 47.02519492 411.08000183 56.07432556 C419.33047061 70.52456857 417.67713089 84.25880655 415.55265808 100.24229431 C415.34734302 101.82562996 415.14257712 103.40903691 414.93830872 104.99250793 C414.3768213 109.32847629 413.80587185 113.66315098 413.2327919 117.99760056 C412.86415797 120.79119458 412.49813162 123.58511838 412.13294983 126.37916565 C405.98850253 173.3868956 399.54215521 220.35414479 393.09486103 267.32109451 C391.72314305 277.31449726 390.35305875 287.30812321 388.98381042 297.30186462 C388.82707108 298.4458498 388.82707108 298.4458498 388.66716528 299.6129458 C387.5900249 307.47477282 386.51306722 315.33662486 385.43619657 323.19848883 C384.89153754 327.17484423 384.34685557 331.15119648 383.8021698 335.12754822 C383.69400074 335.91723362 383.58583169 336.70691902 383.47438478 337.52053428 C381.9552167 348.61090747 380.43446552 359.70106257 378.91266966 370.79107547 C377.96674401 377.68491635 377.02127877 384.57882035 376.07609558 391.47276306 C375.9741432 392.21636471 375.87219082 392.95996636 375.76714897 393.7261014 C373.2308399 412.22703379 370.70920547 430.7298033 368.22702408 449.23809242 C367.82710167 452.21952032 367.42648974 455.20085473 367.02565002 458.18215942 C365.97685525 465.9853467 364.92925372 473.7886382 363.89792919 481.59415627 C363.5026507 484.57717695 363.10252053 487.55953236 362.70110512 490.54173279 C362.44240886 492.47576632 362.19005213 494.41064476 361.93807983 496.3455658 C359.57770499 513.79811729 356.58452121 527.85995096 342.43156433 539.44151306 C323.17521304 551.67731961 299.65469265 545.74476391 278.44739437 542.8024497 C274.66119056 542.27989668 270.87308978 541.77145244 267.08518982 541.2613678 C259.8860919 540.28986251 252.68867005 539.30649025 245.49181867 538.31849492 C237.47580467 537.21850706 229.45821207 536.13028393 221.44035685 535.04381013 C219.07912997 534.72370399 216.71796974 534.40311065 214.35682964 534.08236504 C207.35558055 533.13151248 200.35408299 532.18268712 193.35127157 531.24340093 C189.56446405 530.73538999 185.77787858 530.22573789 181.99137878 529.71543884 C181.26153231 529.61717938 180.53168584 529.51891991 179.77972281 529.41768289 C170.82259149 528.2092044 161.88385458 526.91629221 152.95573425 525.50743103 C121.21577931 520.59368133 89.60588026 520.66540506 57.57823181 520.79911804 C46.72946778 520.84412921 35.88076252 520.86397577 25.03192061 520.84287798 C20.35881874 520.83541153 15.68657906 520.86071461 11.0135498 520.89326477 C8.57582099 520.89394937 6.13809164 520.89364731 3.70036316 520.89219666 C2.07274551 520.91388161 2.07274551 520.91388161 0.4122467 520.93600464 C-10.8332501 520.87853191 -19.29443499 517.6964525 -27.40046692 509.88682556 C-33.78091884 502.69013564 -35.72250649 496.10619378 -35.69986343 486.66553211 C-35.70191607 485.87345422 -35.7039687 485.08137633 -35.70608354 484.26529607 C-35.7117656 481.59483768 -35.7102948 478.92443067 -35.70887756 476.25396729 C-35.71146051 474.32652212 -35.71447347 472.39907749 -35.71788096 470.47163361 C-35.72596254 465.16210731 -35.72774118 459.85259453 -35.72847843 454.54306281 C-35.73032698 448.8217041 -35.73787331 443.10035244 -35.74461365 437.3789978 C-35.75820575 424.86250157 -35.76422306 412.34600854 -35.76862431 399.82950616 C-35.77138527 392.01676061 -35.77562235 384.2040163 -35.78012848 376.39127159 C-35.79232233 354.76765787 -35.80265678 333.14404566 -35.80600357 311.52042866 C-35.8062252 310.12200692 -35.80644699 308.72358518 -35.80666892 307.32516344 C-35.80688956 305.92336129 -35.80711005 304.52155914 -35.80733037 303.119757 C-35.80777292 300.30749404 -35.80822004 297.49523109 -35.80867004 294.68296814 C-35.80877943 293.98569014 -35.80888883 293.28841213 -35.80900153 292.57000449 C-35.81263216 269.96078311 -35.8285523 247.35159379 -35.85186041 224.74238469 C-35.87645737 200.83927116 -35.89016962 176.93617802 -35.89137149 153.03305119 C-35.89228883 140.00285443 -35.89805604 126.97269964 -35.9161911 113.94251442 C-35.93157822 102.84749763 -35.93672075 91.7525358 -35.928453 80.65751038 C-35.92454158 74.99570621 -35.92550016 69.33401274 -35.93951035 63.67222214 C-35.95221958 58.48881136 -35.95107787 53.30559482 -35.93891963 48.12218442 C-35.93695748 46.24732265 -35.94006494 44.37244726 -35.948764 42.49760465 C-36.00976239 28.46206957 -34.9226362 18.29656494 -24.93952942 7.71495056 C-17.77585961 0.96680685 -9.50077426 -0.00555402 0 0 Z " fill="#5A828D" transform="translate(35.56843566894531,-0.4415130615234375)"/>
<path d="M0 0 C0.99 0.845625 1.98 1.69125 3 2.5625 C3.65795059 3.10840286 4.31590118 3.65430573 4.99378967 4.2167511 C7 6 7 6 8.49339294 7.79924011 C13.96646792 13.91733805 20.46218299 14.16697524 28.17628479 14.65657043 C29.92088223 14.74681887 31.66550688 14.83654249 33.41015625 14.92578125 C35.22386079 15.04255631 37.03737417 15.16233519 38.85069275 15.28495789 C43.61592385 15.59982757 48.38258603 15.87709901 53.15063477 16.14544678 C58.90210251 16.47540752 64.65103356 16.84638028 70.40016079 17.21454906 C74.88319802 17.50131107 79.36623139 17.78129101 83.85108948 18.03816223 C119.48914712 20.12724675 119.48914712 20.12724675 130.875 31.6875 C135.42452269 36.09915836 141.24512012 36.80435888 147.21484375 38.11328125 C157.71926112 40.5740684 164.95083673 46.58368186 170.6484375 55.6328125 C178.89890628 70.08305551 177.24556656 83.81729349 175.12109375 99.80078125 C174.91577868 101.3841169 174.71101279 102.96752385 174.50674438 104.55099487 C173.94525697 108.88696323 173.37430752 113.22163792 172.80122757 117.55608749 C172.43259364 120.34968152 172.06656729 123.14360531 171.7013855 125.93765259 C165.55693819 172.94538254 159.11059088 219.91263173 152.6632967 266.87958145 C151.29157872 276.8729842 149.92149442 286.86661015 148.55224609 296.86035156 C148.39550675 298.00433674 148.39550675 298.00433674 148.23560095 299.17143273 C147.15846057 307.03325975 146.08150289 314.8951118 145.00463223 322.75697577 C144.45997321 326.73333117 143.91529124 330.70968342 143.37060547 334.68603516 C143.26243641 335.47572056 143.15426736 336.26540596 143.04282045 337.07902122 C141.52365237 348.16939441 140.00290119 359.25954951 138.48110533 370.34956241 C137.53517968 377.24340328 136.58971444 384.13730729 135.64453125 391.03125 C135.54257887 391.77485165 135.44062649 392.5184533 135.33558464 393.28458834 C132.79927557 411.78552073 130.27764114 430.28829024 127.79545975 448.79657936 C127.39553734 451.77800726 126.99492541 454.75934167 126.59408569 457.74064636 C125.54529092 465.54383364 124.49768939 473.34712514 123.46636486 481.1526432 C123.07108637 484.13566389 122.6709562 487.1180193 122.26954079 490.10021973 C122.01084453 492.03425326 121.7584878 493.9691317 121.5065155 495.90405273 C119.14614066 513.35660423 116.15295688 527.4184379 102 539 C82.74364871 551.23580655 59.22312832 545.30325085 38.01583004 542.36093664 C34.22962623 541.83838362 30.44152545 541.32993938 26.65362549 540.81985474 C19.45452757 539.84834945 12.25710572 538.86497719 5.06025434 537.87698185 C-3.74497332 536.66869511 -12.55212573 535.47469601 -21.359375 534.28125 C-24.50013468 533.8555007 -27.64087959 533.42964255 -30.78161621 533.00372314 C-31.93797207 532.84692325 -31.93797207 532.84692325 -33.11768866 532.68695569 C-38.49494918 531.9575736 -43.87187061 531.22572547 -49.24865723 530.49285889 C-73.15379386 527.23574126 -97.07050852 524.07347991 -121 521 C-121 520.67 -121 520.34 -121 520 C-115.65814517 519.25142211 -110.45280746 518.8522298 -105.05502319 518.85523987 C-104.296964 518.85171302 -103.53890481 518.84818618 -102.75787413 518.84455246 C-100.2401063 518.83395289 -97.72237641 518.83019994 -95.20458984 518.82641602 C-93.39050642 518.82010422 -91.57642453 518.81333773 -89.76234436 518.80615234 C-85.86700131 518.79152947 -81.97166406 518.77978606 -78.07630539 518.77020454 C-71.9158831 518.75470731 -65.75551145 518.7307604 -59.59512329 518.70530701 C-42.08135172 518.63421606 -24.56755201 518.57425817 -7.05371094 518.52319336 C2.62747273 518.49489174 12.30860512 518.45951793 21.98973501 518.41653961 C28.11305507 518.38978126 34.23631722 518.37186812 40.35968423 518.36050236 C44.16763809 518.35137536 47.9755214 518.33401398 51.78343391 518.31432343 C53.54827198 518.3068524 55.31312813 518.30276713 57.07798195 518.30232811 C59.48845795 518.30124429 61.89857579 518.28798533 64.30899048 518.27174377 C65.00588191 518.27436063 65.70277333 518.27697748 66.42078269 518.27967364 C70.65546066 518.23515319 74.04416102 517.47057276 78 516 C78.66 516 79.32 516 80 516 C80.33 515.01 80.66 514.02 81 513 C83.5625 511.8125 83.5625 511.8125 86 511 C86 510.34 86 509.68 86 509 C86.928125 508.484375 87.85625 507.96875 88.8125 507.4375 C92.46094245 505.14001383 93.28385246 502.43842125 94.45703125 498.4140625 C95.61181694 493.27983549 96.12685945 488.42068487 96.1386652 483.15532112 C96.14292853 482.15470536 96.14292853 482.15470536 96.14727798 481.13387513 C96.15559348 478.90077109 96.15689071 476.66771914 96.15821838 474.43460083 C96.16278588 472.81662431 96.16778618 471.19864897 96.17318195 469.58067501 C96.18675111 465.13621831 96.19417789 460.69176926 96.20060861 456.24729729 C96.20861791 451.45389283 96.22231387 446.66050424 96.23532104 441.86711121 C96.25707626 433.56275047 96.27522425 425.25838813 96.29092598 416.95401382 C96.31363329 404.94726484 96.34177494 392.94053344 96.37124526 380.93379937 C96.41891059 361.45392089 96.46217766 341.97403521 96.50268555 322.49414062 C96.54204585 303.57063233 96.58347337 284.64713042 96.62768555 265.72363281 C96.63177196 263.97412442 96.63177196 263.97412442 96.63594092 262.18927242 C96.64962048 256.33812428 96.66334074 250.48697625 96.67708123 244.63582826 C96.79102938 196.0905655 96.89784242 147.5452889 97 99 C92.05221487 98.73225438 87.1044251 98.46459464 82.15663147 98.19700623 C80.48209007 98.10643191 78.80754982 98.01583625 77.13301086 97.92521667 C58.75699986 96.92644493 58.75699986 96.92644493 40.37948799 95.95588398 C19.53273979 94.87035108 19.53273979 94.87035108 13 89.5625 C12.01 88.2940625 12.01 88.2940625 11 87 C10.03078613 86.06994141 10.03078613 86.06994141 9.04199219 85.12109375 C0.3628956 76.10579113 1.06843248 63.67161169 0.75 52 C0.65614321 49.34007921 0.55589608 46.68044713 0.45547485 44.02076721 C0.39187104 42.31102844 0.33125912 40.6011755 0.27377319 38.89122009 C0.09392028 33.69538654 -0.26539555 28.55238169 -0.79492188 23.37939453 C-1.15220202 19.23409421 -1.14497399 15.09541945 -1.125 10.9375 C-1.12886719 10.09767578 -1.13273437 9.25785156 -1.13671875 8.39257812 C-1.1268412 2.25368241 -1.1268412 2.25368241 0 0 Z " fill="#7A9AA4" transform="translate(276,0)"/>
<path d="M0 0 C0.69167936 -0.00367669 1.38335871 -0.00735338 2.09599805 -0.01114148 C4.42511044 -0.02219774 6.75417825 -0.02602544 9.08331299 -0.02983093 C10.74872988 -0.03609414 12.41414538 -0.04274082 14.07955933 -0.04974365 C18.61275217 -0.06716716 23.14593445 -0.0777092 27.67915249 -0.08594918 C30.51046114 -0.09109674 33.34176649 -0.09717259 36.17307281 -0.10346031 C45.0289377 -0.12251661 53.88479423 -0.13674652 62.74067569 -0.14507228 C72.96806497 -0.15484575 83.19523788 -0.18116627 93.42255092 -0.22157317 C101.3241077 -0.25172138 109.22560243 -0.26653994 117.12721562 -0.26985329 C121.8480585 -0.27220537 126.56867035 -0.28118602 131.2894516 -0.30631447 C135.73164837 -0.32957744 140.17346171 -0.33383564 144.61570358 -0.32355309 C146.24510599 -0.32305717 147.87452716 -0.32939402 149.50387192 -0.34310913 C151.73106803 -0.36080587 153.95688478 -0.35373432 156.18408203 -0.34057617 C158.05234713 -0.3441587 158.05234713 -0.3441587 159.95835495 -0.34781361 C164.26495887 0.28144285 167.26238525 2.06354797 170.3460083 5.14717102 C170.4540294 7.36325233 170.49016094 9.58283789 170.49990845 11.80152893 C170.50648183 12.85720066 170.50648183 12.85720066 170.513188 13.93419909 C170.52662269 16.31020535 170.5327653 18.68617448 170.53887939 21.06221008 C170.54677675 22.75865855 170.55504547 24.45510532 170.56365967 26.15155029 C170.58992439 31.73861578 170.60519273 37.32568893 170.6194458 42.91279602 C170.62480384 44.83347835 170.63018135 46.75416062 170.63557816 48.67484283 C170.65721431 56.66303482 170.6759518 64.65122474 170.68720055 72.63943863 C170.70344346 84.1003601 170.73662108 95.56094269 170.79360139 107.02173638 C170.83226828 115.07272357 170.85182944 123.12362001 170.85712111 131.17469764 C170.86077934 135.98668265 170.87285015 140.7983066 170.90522385 145.61019135 C170.93524701 150.1377871 170.94163701 154.66480228 170.92984009 159.19247627 C170.92961886 160.85455804 170.93796449 162.51666628 170.95549393 164.17865562 C170.9781277 166.44809844 170.96992029 168.71542576 170.95401001 170.98487854 C170.95897523 172.8896591 170.95897523 172.8896591 170.96404076 174.83292007 C170.15879292 179.15112921 168.8936192 180.59635133 165.3460083 183.14717102 C162.04013729 183.7707901 162.04013729 183.7707901 158.2039032 183.76863098 C157.14204657 183.77821421 157.14204657 183.77821421 156.05873829 183.78799105 C153.69224569 183.80322326 151.32743219 183.78279398 148.96099854 183.7624054 C147.26233364 183.76590713 145.56367202 183.7715663 143.86502075 183.77922058 C139.25547331 183.79346975 134.6465223 183.77640655 130.03703189 183.75293541 C125.21425008 183.73283335 120.3914932 183.73870557 115.56867981 183.74104309 C107.47067421 183.74098952 99.37290193 183.72123029 91.27496338 183.68916321 C81.90962803 183.65225789 72.54459821 183.64348934 63.17919964 183.65046072 C54.17219503 183.65676314 45.16529529 183.64601707 36.15831184 183.62649536 C32.32385833 183.6183159 28.48945838 183.61561281 24.65499687 183.6171875 C20.14134931 183.61806564 15.62799267 183.60386929 11.11442184 183.57796097 C9.45679065 183.57079157 7.79912851 183.56871926 6.14148521 183.5720787 C3.88104986 183.57578636 1.62146688 183.56107203 -0.63887024 183.5415802 C-1.90445046 183.53785149 -3.17003069 183.53412277 -4.47396183 183.53028107 C-7.88453472 183.11939664 -9.27507322 182.58291577 -11.6539917 180.14717102 C-12.80886204 176.68256001 -12.7886789 173.98489078 -12.80116272 170.32823181 C-12.80483941 169.63090891 -12.8085161 168.93358601 -12.8123042 168.21513212 C-12.82333822 165.8729723 -12.82718435 163.53085685 -12.83099365 161.18867493 C-12.8372584 159.51163594 -12.84390521 157.83459833 -12.85090637 156.15756226 C-12.86831211 151.59763708 -12.87886647 147.03772239 -12.8871119 142.47777224 C-12.89226183 139.62988255 -12.89833749 136.78199612 -12.90462303 133.93410873 C-12.92367194 125.02645753 -12.93790503 116.11881461 -12.946235 107.21114695 C-12.95601435 96.92319784 -12.98235328 86.63546349 -13.02273589 76.34759009 C-13.05286968 68.39847078 -13.06770117 60.44941315 -13.07101601 52.50023782 C-13.07336916 47.75093776 -13.08236418 43.00186721 -13.10747719 38.25262833 C-13.13071584 33.78579872 -13.13500821 29.31935045 -13.12471581 24.85247612 C-13.12421934 23.21297756 -13.1305722 21.57346049 -13.14427185 19.93401909 C-13.16193073 17.69557948 -13.15491581 15.45851745 -13.14173889 13.22007751 C-13.14412724 11.96757013 -13.1465156 10.71506275 -13.14897633 9.4246006 C-12.56380326 5.55000854 -11.38027746 3.90720486 -8.6539917 1.14717102 C-5.75686655 -0.30139155 -3.23799037 0.01112337 0 0 Z " fill="#F0F4F5" transform="translate(36.65399169921875,82.85282897949219)"/>
<path d="M0 0 C0.99 0.66 1.98 1.32 3 2 C5.56049031 2.67786062 8.10549442 3.29480712 10.6875 3.875 C23.06135056 6.83633415 31.71658058 11.62339269 38.6484375 22.6328125 C46.89890628 37.08305551 45.24556656 50.81729349 43.12109375 66.80078125 C42.91577868 68.3841169 42.71101279 69.96752385 42.50674438 71.55099487 C41.94525697 75.88696323 41.37430752 80.22163792 40.80122757 84.55608749 C40.43259364 87.34968152 40.06656729 90.14360531 39.7013855 92.93765259 C33.55693819 139.94538254 27.11059088 186.91263173 20.6632967 233.87958145 C19.29157872 243.8729842 17.92149442 253.86661015 16.55224609 263.86035156 C16.39550675 265.00433674 16.39550675 265.00433674 16.23560095 266.17143273 C15.15846057 274.03325975 14.08150289 281.8951118 13.00463223 289.75697577 C12.45997321 293.73333117 11.91529124 297.70968342 11.37060547 301.68603516 C11.26243641 302.47572056 11.15426736 303.26540596 11.04282045 304.07902122 C9.52365237 315.16939441 8.00290119 326.25954951 6.48110533 337.34956241 C5.53517968 344.24340328 4.58971444 351.13730729 3.64453125 358.03125 C3.54257887 358.77485165 3.44062649 359.5184533 3.33558464 360.28458834 C0.79927557 378.78552073 -1.72235886 397.28829024 -4.20454025 415.79657936 C-4.60446266 418.77800726 -5.00507459 421.75934167 -5.40591431 424.74064636 C-6.45470908 432.54383364 -7.50231061 440.34712514 -8.53363514 448.1526432 C-8.92891363 451.13566389 -9.3290438 454.1180193 -9.73045921 457.10021973 C-9.98915547 459.03425326 -10.2415122 460.9691317 -10.4934845 462.90405273 C-12.85385934 480.35660423 -15.84704312 494.4184379 -30 506 C-49.39733647 518.32539088 -73.18731314 512.24998643 -94.54400659 509.29507351 C-98.38357443 508.76646601 -102.22499251 508.25164154 -106.06620789 507.73516846 C-113.34577905 506.75431247 -120.62364419 505.76135399 -127.90095729 504.76389813 C-136.07729216 503.6438344 -144.25548256 502.53763277 -152.43384802 501.4325099 C-180.29543377 497.66675091 -208.14991684 493.84987018 -236 490 C-236 489.01 -236 488.02 -236 487 C-229.50478516 486.90138844 -223.20773293 487.27552702 -216.75 487.9375 C-209.37617255 488.65338144 -202.02733558 489.20048761 -194.625 489.5 C-186.2939506 489.84274537 -178.01364276 490.46560751 -169.70874023 491.20141602 C-161.89242529 491.87902387 -154.071351 492.3686056 -146.23931885 492.81915283 C-135.38963303 493.44495349 -124.60937266 494.28179104 -113.8125 495.5625 C-103.52011144 496.77152541 -93.30889489 497.67262528 -82.94677734 497.92382812 C-80.78786696 497.97963426 -78.62933955 498.05082842 -76.47119141 498.13085938 C-72.62678147 498.26736486 -68.7834575 498.35696021 -64.9375 498.4375 C-63.73625488 498.48414795 -62.53500977 498.5307959 -61.29736328 498.57885742 C-53.58524653 498.67139426 -48.33833131 497.31738096 -41.62329102 493.49243164 C-39 492 -39 492 -36.22631836 490.91967773 C-33.38607517 489.74639162 -33.18647761 488.76844777 -32 486 C-31.0409375 484.824375 -31.0409375 484.824375 -30.0625 483.625 C-27.87467156 481.02145497 -27.87467156 481.02145497 -26.375 477.75 C-25 475 -25 475 -23 474 C-20.33544544 465.34210952 -20.41172252 455.80619729 -19.9375 446.8125 C-19.8208849 444.6860321 -19.70224047 442.55970983 -19.58070374 440.43351746 C-19.47157259 438.51295023 -19.36828455 436.59205354 -19.26538086 434.67114258 C-19.03465262 431.4793666 -18.66371771 428.33707987 -18.24876404 425.16532898 C-17.76764017 420.97745894 -17.56052942 416.76964303 -17.31640625 412.5625 C-17.19340731 410.52538773 -17.07035861 408.48827846 -16.94726562 406.45117188 C-16.88450439 405.39728271 -16.82174316 404.34339355 -16.75708008 403.25756836 C-14.98789897 373.63876838 -14.98789897 373.63876838 -13.76757812 359.87939453 C-13.01850391 351.41272436 -12.3825824 342.93918793 -11.7543335 334.46286011 C-10.71583747 320.45340665 -9.66395156 306.44500375 -8.57003784 292.4397583 C-8.44123542 290.78727417 -8.3132291 289.13472777 -8.18606567 287.4821167 C-8.0090761 285.18451296 -7.82915125 282.88715719 -7.6484375 280.58984375 C-7.49640869 278.63872681 -7.49640869 278.63872681 -7.34130859 276.64819336 C-7.12681621 274.35551835 -6.85852786 272.06660156 -6.51345825 269.78991699 C-5.96850096 265.76750056 -5.6714299 261.76248434 -5.44335938 257.71313477 C-5.39605179 256.91541656 -5.3487442 256.11769836 -5.30000305 255.29580688 C-5.19832867 253.57499714 -5.09798834 251.85410814 -4.99885559 250.1331501 C-4.84159598 247.40402485 -4.68071286 244.67513388 -4.5189209 241.9462738 C-4.17603919 236.15187068 -3.83778032 230.35720241 -3.5 224.5625 C-3.10830654 217.84735734 -2.71469054 211.13233625 -2.31684875 204.41755486 C-2.15905298 201.7389866 -2.004437 199.06024728 -1.84997559 196.38148499 C-1.75234777 194.72640103 -1.6545769 193.0713255 -1.55664062 191.41625977 C-1.51505325 190.67990799 -1.47346588 189.94355621 -1.43061829 189.18489075 C-1.14449457 184.42126189 -0.61011052 179.73299653 0 175 C0.13331608 173.39929435 0.25004185 171.79701212 0.34130859 170.19335938 C0.39172806 169.33500488 0.44214752 168.47665039 0.49409485 167.59228516 C0.54502792 166.68526855 0.595961 165.77825195 0.6484375 164.84375 C0.76609795 162.84829198 0.88402857 160.85284987 1.00219727 158.85742188 C1.06287384 157.82029053 1.12355042 156.78315918 1.18606567 155.71459961 C2.07348916 140.61564307 3.01889823 125.5474049 4.5625 110.5 C5.97853052 96.683471 6.70616901 82.87270955 7.26586914 68.99804688 C7.64209561 60.05717182 8.37584446 51.29429991 9.57006836 42.42529297 C11.10453928 30.20006466 11.3340261 18.26763654 4 8 C4 7.01 4 6.02 4 5 C2.35 4.34 0.7 3.68 -1 3 C-0.67 2.01 -0.34 1.02 0 0 Z " fill="#9BB2B9" transform="translate(408,33)"/>
<path d="M0 0 C7.70902482 6.32650965 12.97672787 15.00849521 16.44140625 24.26953125 C16.80234375 25.14480469 17.16328125 26.02007812 17.53515625 26.921875 C18.73788439 31.36471129 18.69476068 35.50341559 18.62890625 40.08203125 C18.62793945 41.38817383 18.62793945 41.38817383 18.62695312 42.72070312 C18.58200059 49.12893691 18.58200059 49.12893691 17.44140625 50.26953125 C16.07532299 50.36488338 14.7043517 50.39141795 13.33494568 50.38978577 C12.45008484 50.39116043 11.565224 50.3925351 10.65354919 50.39395142 C9.18620079 50.3885585 9.18620079 50.3885585 7.68920898 50.38305664 C6.66493805 50.38320267 5.64066711 50.38334869 4.58535767 50.38349915 C1.18188396 50.38279953 -2.22153579 50.37500488 -5.625 50.3671875 C-7.97769643 50.36532349 -10.33039325 50.36389951 -12.68309021 50.36289978 C-18.8891608 50.35907324 -25.09520815 50.3492418 -31.30126953 50.3381958 C-37.62857753 50.32798459 -43.95588927 50.32340279 -50.28320312 50.31835938 C-62.70834357 50.30761965 -75.13346673 50.29054161 -87.55859375 50.26953125 C-90.97535414 43.43601047 -88.75053874 32.4274789 -86.71875 25.33984375 C-81.25109383 10.86988501 -71.6761588 -0.94144861 -57.55859375 -7.73046875 C-37.52387076 -15.83368474 -17.48458743 -11.82545379 0 0 Z " fill="#46636C" transform="translate(150.55859375,191.73046875)"/>
<path d="M0 0 C1.6407848 1.40150368 3.27981025 2.80511665 4.91015625 4.21875 C6.33378504 5.43216071 7.78045274 6.61893296 9.24609375 7.78125 C9.96925781 8.3690625 10.69242187 8.956875 11.4375 9.5625 C12.11683594 10.10003906 12.79617188 10.63757813 13.49609375 11.19140625 C15 13 15 13 15.22265625 15.71484375 C15.14917969 16.46894531 15.07570313 17.22304688 15 18 C15.66 18 16.32 18 17 18 C17 18.66 17 19.32 17 20 C17.928125 20.0928125 17.928125 20.0928125 18.875 20.1875 C21 21 21 21 22.25 23.5625 C22.4975 24.366875 22.745 25.17125 23 26 C23.66 26 24.32 26 25 26 C25 26.66 25 27.32 25 28 C25.99 28 26.98 28 28 28 C28 28.66 28 29.32 28 30 C28.66 30 29.32 30 30 30 C30.061875 30.61875 30.12375 31.2375 30.1875 31.875 C30.455625 32.57625 30.72375 33.2775 31 34 C32.65438613 34.69658363 34.32254318 35.36096883 36 36 C39 39.31034483 39 39.31034483 39 42 C39.66 42 40.32 42 41 42 C41 42.66 41 43.32 41 44 C41.928125 44.0928125 41.928125 44.0928125 42.875 44.1875 C43.57625 44.455625 44.2775 44.72375 45 45 C45.66666667 46.66666667 46.33333333 48.33333333 47 50 C48.32796291 50.35412344 49.66216607 50.68521554 51 51 C52.36176922 52.64351457 53.68962066 54.31522656 55 56 C56.79942849 57.54576456 58.6349944 59.02191216 60.51171875 60.47265625 C62.25764286 62.26440514 62.60671957 63.56166134 63 66 C63.66 66 64.32 66 65 66 C67.125 67.875 67.125 67.875 69 70 C69 70.66 69 71.32 69 72 C69.66 72 70.32 72 71 72 C71 72.66 71 73.32 71 74 C71.66 74 72.32 74 73 74 C73.33 74.66 73.66 75.32 74 76 C75.485 76.495 75.485 76.495 77 77 C77.66666667 78.66666667 78.33333333 80.33333333 79 82 C80.485 82.495 80.485 82.495 82 83 C83.6875 84.4375 83.6875 84.4375 85 86 C85 86.66 85 87.32 85 88 C85.8971875 88.4021875 85.8971875 88.4021875 86.8125 88.8125 C88.98525092 89.99199336 90.30618365 91.229192 92 93 C92.66 93.33 93.32 93.66 94 94 C94 94.99 94 95.98 94 97 C87.81502129 96.87974941 81.63014102 96.75542809 75.4453125 96.62768555 C73.3509328 96.58495943 71.25653194 96.54325588 69.16210938 96.50268555 C58.40939638 96.29371968 47.66156911 96.04434933 36.91796875 95.54296875 C36.11582947 95.50796768 35.31369019 95.47296661 34.48724365 95.43690491 C26.81568302 95.04831145 19.12872976 94.54209293 13 89.5625 C12.34 88.716875 11.68 87.87125 11 87 C10.35385742 86.37996094 9.70771484 85.75992188 9.04199219 85.12109375 C0.3628956 76.10579113 1.06843248 63.67161169 0.75 52 C0.65614321 49.34007921 0.55589608 46.68044713 0.45547485 44.02076721 C0.39187104 42.31102844 0.33125912 40.6011755 0.27377319 38.89122009 C0.09392028 33.69538654 -0.26539555 28.55238169 -0.79492188 23.37939453 C-1.15220202 19.23409421 -1.14497399 15.09541945 -1.125 10.9375 C-1.12886719 10.09767578 -1.13273437 9.25785156 -1.13671875 8.39257812 C-1.1268412 2.25368241 -1.1268412 2.25368241 0 0 Z " fill="#99B3BA" transform="translate(276,0)"/>
<path d="M0 0 C1.29808594 -0.00257812 2.59617188 -0.00515625 3.93359375 -0.0078125 C6.96361541 0.10308173 9.62748638 0.41245334 12.5625 1.125 C12.5625 1.785 12.5625 2.445 12.5625 3.125 C15.21478812 4.20025194 17.84618454 5.21956151 20.5625 6.125 C26.93535591 11.92119377 31.07694554 18.28447251 31.94140625 26.90234375 C32.35867492 36.29535148 31.42819705 44.54720087 25.1875 51.9375 C24.32125 52.659375 23.455 53.38125 22.5625 54.125 C22.06363281 54.57746094 21.56476563 55.02992188 21.05078125 55.49609375 C18.36407404 57.88502989 16.20203422 59.70505374 12.5625 60.125 C12.5625 60.785 12.5625 61.445 12.5625 62.125 C10.24725961 63.2826202 8.89133938 63.25402305 6.31640625 63.2578125 C5.47916016 63.25910156 4.64191406 63.26039063 3.77929688 63.26171875 C2.46541992 63.25591797 2.46541992 63.25591797 1.125 63.25 C0.25294922 63.25386719 -0.61910156 63.25773437 -1.51757812 63.26171875 C-2.35611328 63.26042969 -3.19464844 63.25914062 -4.05859375 63.2578125 C-4.8261499 63.25668457 -5.59370605 63.25555664 -6.38452148 63.25439453 C-8.4375 63.125 -8.4375 63.125 -11.4375 62.125 C-11.4375 61.465 -11.4375 60.805 -11.4375 60.125 C-12.30375 59.898125 -13.17 59.67125 -14.0625 59.4375 C-21.13730026 56.68618879 -25.88053403 51.35426274 -29.125 44.625 C-32.26472973 36.25238738 -32.90937755 26.48906864 -29.4375 18.125 C-27.59810652 15.31721996 -25.54871339 12.73102902 -23.4375 10.125 C-22.81875 9.2175 -22.2 8.31 -21.5625 7.375 C-15.68615643 1.15298916 -8.19989244 -0.0162535 0 0 Z " fill="#FDC871" transform="translate(115.4375,112.875)"/>
<path d="M0 0 C11.88 0 23.76 0 36 0 C34.45095332 4.64714005 33.09926342 7.8016493 30.625 11.875 C28.49464791 15.42411354 26.49477156 18.93421234 24.75 22.6875 C23 26 23 26 20 27 C17.36 21.72 14.72 16.44 12 11 C10.68 11 9.36 11 8 11 C8.56872669 14.53251908 9.45781428 17.1945575 11.25 20.28515625 C11.6934375 21.06310547 12.136875 21.84105469 12.59375 22.64257812 C13.28984375 23.84043945 13.28984375 23.84043945 14 25.0625 C14.92099627 26.65505606 15.83782804 28.25002949 16.75 29.84765625 C17.36101563 30.8996521 17.36101563 30.8996521 17.984375 31.97290039 C18.98948979 33.97902253 19.5476283 35.80913191 20 38 C20.99 38 21.98 38 23 38 C23.10795898 37.28755127 23.21591797 36.57510254 23.32714844 35.84106445 C24.06786625 32.71343994 25.22497705 30.36088722 26.765625 27.54296875 C27.32636719 26.51236328 27.88710938 25.48175781 28.46484375 24.41992188 C29.05394531 23.35322266 29.64304687 22.28652344 30.25 21.1875 C30.82363281 20.13240234 31.39726563 19.07730469 31.98828125 17.99023438 C33.63527156 14.97950607 35.30804145 11.98565767 37 9 C37.47244141 8.16033691 37.94488281 7.32067383 38.43164062 6.45556641 C39.53240902 4.5820322 40.75431298 2.78047335 42 1 C42.99 1 43.98 1 45 1 C45 15.52 45 30.04 45 45 C42.69985789 46.15007105 41.39884232 46.12670485 38.84155273 46.12939453 C37.98403915 46.13254669 37.12652557 46.13569885 36.24302673 46.13894653 C35.31591385 46.1369223 34.38880096 46.13489807 33.43359375 46.1328125 C32.00975121 46.13424759 32.00975121 46.13424759 30.55714417 46.13571167 C28.548919 46.1363928 26.54069165 46.13454319 24.5324707 46.13037109 C21.44672745 46.12501601 18.36112937 46.1303214 15.27539062 46.13671875 C13.32812468 46.13605807 11.38085882 46.13477713 9.43359375 46.1328125 C8.50445663 46.13483673 7.57531952 46.13686096 6.61802673 46.13894653 C5.76366531 46.13579437 4.90930389 46.13264221 4.02905273 46.12939453 C3.27341537 46.12859894 2.51777802 46.12780334 1.73924255 46.12698364 C0 46 0 46 -1 45 C-1.09784502 43.65985714 -1.12797977 42.31465651 -1.12939453 40.97094727 C-1.13254669 40.11658585 -1.13569885 39.26222443 -1.13894653 38.38197327 C-1.1369223 37.45283615 -1.13489807 36.52369904 -1.1328125 35.56640625 C-1.13376923 34.61813461 -1.13472595 33.66986298 -1.13571167 32.69285583 C-1.13639363 30.68285048 -1.13453823 28.67284294 -1.13037109 26.6628418 C-1.12502896 23.5792141 -1.1303125 20.49573247 -1.13671875 17.41210938 C-1.13605786 15.46354134 -1.13477646 13.5149734 -1.1328125 11.56640625 C-1.13483673 10.63929337 -1.13686096 9.71218048 -1.13894653 8.75697327 C-1.13579437 7.89945969 -1.13264221 7.04194611 -1.12939453 6.15844727 C-1.12859894 5.40201431 -1.12780334 4.64558136 -1.12698364 3.8662262 C-1 2 -1 2 0 0 Z " fill="#97B1BA" transform="translate(30,331)"/>
<path d="M0 0 C1.51815699 0.00015911 3.0363194 0.00585313 4.55444336 0.01586914 C5.35208603 0.01728409 6.1497287 0.01869904 6.97154236 0.02015686 C9.52916146 0.02577223 12.08669429 0.03832727 14.64428711 0.05102539 C16.37410356 0.05603841 18.10392137 0.06060166 19.83374023 0.06469727 C24.08312264 0.07574664 28.33244023 0.09302153 32.58178711 0.11352539 C31.89090402 3.71358647 30.39548648 6.55065664 28.64038086 9.75415039 C28.05708008 10.82407227 27.4737793 11.89399414 26.87280273 12.99633789 C26.26114258 14.10750977 25.64948242 15.21868164 25.01928711 16.36352539 C24.40375977 17.49016602 23.78823242 18.61680664 23.15405273 19.77758789 C21.63399306 22.55847226 20.10976938 25.33698866 18.58178711 28.11352539 C15.4214412 25.14209181 13.48130686 21.68869934 11.39428711 17.92602539 C10.84224609 16.94472656 10.84224609 16.94472656 10.27905273 15.94360352 C9.37554051 14.33605578 8.47806301 12.72511888 7.58178711 11.11352539 C6.59178711 11.11352539 5.60178711 11.11352539 4.58178711 11.11352539 C5.15206873 14.65221583 6.04849598 17.33071381 7.83178711 20.43383789 C8.27522461 21.21629883 8.71866211 21.99875977 9.17553711 22.80493164 C9.63959961 23.60801758 10.10366211 24.41110352 10.58178711 25.23852539 C11.5006751 26.84402691 12.41743548 28.45074853 13.33178711 30.05883789 C13.73913086 30.76540527 14.14647461 31.47197266 14.56616211 32.19995117 C15.58178711 34.11352539 15.58178711 34.11352539 16.58178711 37.11352539 C18.06678711 37.60852539 18.06678711 37.60852539 19.58178711 38.11352539 C19.69135742 37.55665039 19.80092773 36.99977539 19.91381836 36.42602539 C20.69566867 33.71926877 21.8795486 31.56471771 23.26928711 29.11352539 C25.48640047 25.13965395 27.58269109 21.13888664 29.58178711 17.05102539 C32.29821236 11.5534981 35.33717036 6.31411677 38.58178711 1.11352539 C39.57178711 1.44352539 40.56178711 1.77352539 41.58178711 2.11352539 C41.6311311 8.0583372 41.66747993 14.00303048 41.69165039 19.94799805 C41.70172382 21.97145666 41.71538306 23.99490067 41.73266602 26.01831055 C41.75685558 28.92248128 41.7682566 31.82646 41.77709961 34.73071289 C41.78742218 35.63908905 41.79774475 36.54746521 41.80838013 37.48336792 C41.80860672 38.7444487 41.80860672 38.7444487 41.80883789 40.03100586 C41.81327911 40.77269012 41.81772034 41.51437439 41.82229614 42.27853394 C41.58178711 44.11352539 41.58178711 44.11352539 39.58178711 46.11352539 C37.71556091 46.36076355 37.71556091 46.36076355 35.42333984 46.35644531 C34.56582626 46.35952194 33.70831268 46.36259857 32.82481384 46.36576843 C31.89770096 46.35858292 30.97058807 46.3513974 30.01538086 46.34399414 C29.0661525 46.34353592 28.11692413 46.3430777 27.13893127 46.34260559 C25.13069408 46.33958177 23.12245927 46.33169163 21.11425781 46.31933594 C18.02848062 46.30107978 14.94300328 46.29882621 11.85717773 46.29907227 C9.9099095 46.29415722 7.9626433 46.28832896 6.01538086 46.28149414 C5.08624374 46.28038132 4.15710663 46.27926849 3.19981384 46.27812195 C2.34545242 46.2717421 1.491091 46.26536224 0.61083984 46.25878906 C-0.14479752 46.25497726 -0.90043488 46.25116547 -1.67897034 46.24723816 C-3.41821289 46.11352539 -3.41821289 46.11352539 -4.41821289 45.11352539 C-4.516166 43.73742657 -4.54619377 42.35638657 -4.54760742 40.97680664 C-4.55075958 40.09919678 -4.55391174 39.22158691 -4.55715942 38.31738281 C-4.55513519 37.36323486 -4.55311096 36.40908691 -4.55102539 35.42602539 C-4.55198212 34.45318604 -4.55293884 33.48034668 -4.55392456 32.47802734 C-4.55460647 30.41674739 -4.55275142 28.35546531 -4.54858398 26.29418945 C-4.5432359 23.12714851 -4.54852861 19.96024939 -4.55493164 16.79321289 C-4.55427086 14.79581674 -4.5529897 12.79842068 -4.55102539 10.80102539 C-4.55304962 9.84687744 -4.55507385 8.89272949 -4.55715942 7.90966797 C-4.55400726 7.03205811 -4.5508551 6.15444824 -4.54760742 5.25024414 C-4.54681183 4.47382568 -4.54601624 3.69740723 -4.54519653 2.89746094 C-4.31032318 -0.40216822 -3.39535327 0.11276618 0 0 Z " fill="#B8CAD0" transform="translate(32.418212890625,411.886474609375)"/>
<path d="M0 0 C79.86 0 159.72 0 242 0 C242 1.98 242 3.96 242 6 C162.14 6 82.28 6 0 6 C0 4.02 0 2.04 0 0 Z " fill="#B3C9D2" transform="translate(108,429)"/>
<path d="M0 0 C79.86 0 159.72 0 242 0 C242 1.98 242 3.96 242 6 C162.14 6 82.28 6 0 6 C0 4.02 0 2.04 0 0 Z " fill="#DFC485" transform="translate(108,406)"/>
<path d="M0 0 C79.86 0 159.72 0 242 0 C242 1.65 242 3.3 242 5 C162.14 5 82.28 5 0 5 C0 3.35 0 1.7 0 0 Z " fill="#B9CED6" transform="translate(108,351)"/>
<path d="M0 0 C79.53 0 159.06 0 241 0 C241 1.65 241 3.3 241 5 C161.14 5 81.28 5 -1 5 C-0.67 3.35 -0.34 1.7 0 0 Z " fill="#F1CB80" transform="translate(109,328)"/>
<path d="M0 0 C53.46 0 106.92 0 162 0 C162 1.65 162 3.3 162 5 C161 6 161 6 158.3625555 6.12304783 C157.17620793 6.12212604 155.98986036 6.12120424 154.76756287 6.12025452 C154.10925651 6.12110894 153.45095016 6.12196337 152.77269512 6.12284368 C150.55082894 6.1245003 148.32903705 6.11897418 146.10717773 6.11352539 C144.52084352 6.11324353 142.93450918 6.11340123 141.34817505 6.1139679 C137.02811278 6.11425592 132.70807803 6.10835837 128.38802218 6.10139394 C123.87831685 6.09516125 119.36861095 6.09455667 114.85890198 6.09336853 C106.31305626 6.09025496 97.76722326 6.08204124 89.22138315 6.07201904 C79.49482367 6.06085869 69.76826358 6.05534765 60.04169929 6.05032361 C40.02779241 6.03985864 20.01389701 6.02225871 0 6 C0 4.02 0 2.04 0 0 Z " fill="#B5C8D1" transform="translate(108,452)"/>
<path d="M0 0 C53.46 0 106.92 0 162 0 C162 1.65 162 3.3 162 5 C108.54 5 55.08 5 0 5 C0 3.35 0 1.7 0 0 Z " fill="#BACED6" transform="translate(108,374)"/>
<path d="M0 0 C41.91 0 83.82 0 127 0 C127 1.98 127 3.96 127 6 C85.09 6 43.18 6 0 6 C0 4.02 0 2.04 0 0 Z " fill="#B2C7D0" transform="translate(223,229)"/>
<path d="M0 0 C41.91 0 83.82 0 127 0 C127 1.98 127 3.96 127 6 C85.09 6 43.18 6 0 6 C0 4.02 0 2.04 0 0 Z " fill="#B4C7D1" transform="translate(223,206)"/>
<path d="M0 0 C41.91 0 83.82 0 127 0 C127 1.98 127 3.96 127 6 C85.09 6 43.18 6 0 6 C0 4.02 0 2.04 0 0 Z " fill="#AAC0CA" transform="translate(223,160)"/>
<path d="M0 0 C41.91 0 83.82 0 127 0 C127 1.98 127 3.96 127 6 C85.09 6 43.18 6 0 6 C0 4.02 0 2.04 0 0 Z " fill="#E0C286" transform="translate(223,137)"/>
<path d="M0 0 C1.05169876 -0.00281982 2.10339752 -0.00563965 3.18696594 -0.00854492 C4.93247993 -0.00550858 4.93247993 -0.00550858 6.71325684 -0.00241089 C7.93099289 -0.00416321 9.14872894 -0.00591553 10.40336609 -0.00772095 C13.75246237 -0.01137916 17.10149723 -0.01050602 20.45059013 -0.00734186 C23.94818075 -0.0048179 27.44576866 -0.0071559 30.94335938 -0.00872803 C36.81799798 -0.01054962 42.69262404 -0.00814369 48.56726074 -0.00338745 C55.36838172 0.00205515 62.16947272 0.00029249 68.97059298 -0.00521386 C74.79988249 -0.00974529 80.62916295 -0.01039539 86.45845366 -0.00777519 C89.94441946 -0.00621258 93.43037115 -0.0060182 96.91633606 -0.00931168 C100.80047784 -0.01272471 104.68458579 -0.00800016 108.56872559 -0.00241089 C109.73240158 -0.00443512 110.89607758 -0.00645935 112.09501648 -0.00854492 C113.67256462 -0.00431519 113.67256462 -0.00431519 115.28198242 0 C116.66134098 0.00056554 116.66134098 0.00056554 118.06856537 0.0011425 C120.14099121 0.12698364 120.14099121 0.12698364 121.14099121 1.12698364 C121.14099121 2.77698364 121.14099121 4.42698364 121.14099121 6.12698364 C79.23099121 6.12698364 37.32099121 6.12698364 -5.85900879 6.12698364 C-5.85900879 -0.34524889 -5.77194704 0.0023665 0 0 Z " fill="#B4C7CE" transform="translate(228.8590087890625,182.87301635742188)"/>
<path d="M0 0 C79.2 0 158.4 0 240 0 C240 0.66 240 1.32 240 2 C161.13 2.33 82.26 2.66 1 3 C0.67 4.32 0.34 5.64 0 7 C79.86 7 159.72 7 242 7 C242 5.35 242 3.7 242 2 C242.66 2 243.32 2 244 2 C244 3.98 244 5.96 244 8 C162.82 8 81.64 8 -2 8 C-3 4 -3 4 -2 2 C-1.34 2 -0.68 2 0 2 C0 1.34 0 0.68 0 0 Z " fill="#8A8F77" transform="translate(108,326)"/>
<path d="M0 0 C0.83727129 -0.00720654 1.67454258 -0.01441309 2.53718573 -0.02183801 C3.45701961 -0.01446372 4.37685349 -0.00708944 5.32456112 0.00050831 C6.30168228 -0.0034661 7.27880343 -0.0074405 8.28553432 -0.01153535 C11.57456307 -0.02119469 14.86316559 -0.00931816 18.15218258 0.00241566 C20.50403155 -0.00001109 22.85587949 -0.00372926 25.20772457 -0.00864697 C31.60629227 -0.01807509 38.00470751 -0.0086146 44.40326333 0.00468516 C50.41062488 0.01610813 56.41799066 0.01238829 62.42535948 0.01048265 C74.32765319 0.0072915 86.22988708 0.01896814 98.13216305 0.03854847 C109.69012428 0.05755746 121.24801542 0.06463506 132.80599117 0.05905628 C145.38362168 0.05300332 157.96122135 0.05316636 170.53884929 0.06454211 C177.20000613 0.07054286 183.86114285 0.07420513 190.52230167 0.07157421 C196.78244194 0.06969654 203.04249172 0.0777549 209.30261135 0.09363461 C211.6061144 0.09789271 213.90962659 0.09871784 216.2131319 0.0959444 C219.34559055 0.09274393 222.4777752 0.10175025 225.61020565 0.1140337 C226.53227025 0.11025438 227.45433485 0.10647505 228.4043408 0.1025812 C234.67556268 0.14640123 234.67556268 0.14640123 236.90389156 2.37473011 C157.37389156 2.37473011 77.84389156 2.37473011 -4.09610844 2.37473011 C-4.09610844 4.35473011 -4.09610844 6.33473011 -4.09610844 8.37473011 C75.10389156 8.37473011 154.30389156 8.37473011 235.90389156 8.37473011 C235.90389156 8.70473011 235.90389156 9.03473011 235.90389156 9.37473011 C155.71389156 9.37473011 75.52389156 9.37473011 -7.09610844 9.37473011 C-7.09610844 3.37473011 -7.09610844 3.37473011 -5.85211521 1.52315074 C-3.72110875 0.12948198 -2.53606917 -0.00019276 0 0 Z " fill="#738174" transform="translate(112.09610843658447,403.62526988983154)"/>
<path d="M0 0 C2.475 0.495 2.475 0.495 5 1 C4.67 2.98 4.34 4.96 4 7 C3.34 7 2.68 7 2 7 C1.87181885 7.58539551 1.7436377 8.17079102 1.61157227 8.77392578 C1.01874002 10.93178782 0.26434924 12.64781666 -0.78515625 14.6171875 C-1.14722168 15.29990723 -1.50928711 15.98262695 -1.88232422 16.68603516 C-2.46651123 17.76957275 -2.46651123 17.76957275 -3.0625 18.875 C-3.46227051 19.62442871 -3.86204102 20.37385742 -4.27392578 21.14599609 C-7.48063463 27.12299779 -10.83397634 33.00589395 -14.2734375 38.8515625 C-16.09643627 42.17585437 -17.56114111 45.49554001 -19 49 C-20.875 48.70947266 -20.875 48.70947266 -23 48 C-24.51556299 45.46024796 -25.77908223 43.05052684 -27 40.375 C-27.66465838 38.96519727 -28.33131424 37.55633447 -29 36.1484375 C-29.32452148 35.45661377 -29.64904297 34.76479004 -29.98339844 34.05200195 C-30.99212669 32.01589222 -32.10217015 30.07995794 -33.265625 28.12890625 C-35 25 -35 25 -34.75 22.5625 C-34.5025 22.046875 -34.255 21.53125 -34 21 C-31.52169666 21.36808749 -30.3253581 21.59789362 -28.71972656 23.58227539 C-28.36362305 24.24735107 -28.00751953 24.91242676 -27.640625 25.59765625 C-27.24746094 26.31630859 -26.85429688 27.03496094 -26.44921875 27.77539062 C-25.85560547 28.90750977 -25.85560547 28.90750977 -25.25 30.0625 C-24.83878906 30.82111328 -24.42757812 31.57972656 -24.00390625 32.36132812 C-22.99073617 34.23451468 -21.9937944 36.11646233 -21 38 C-13.58273861 25.53840389 -6.38710534 13.0296949 0 0 Z " fill="#4B666E" transform="translate(71,401)"/>
<path d="M0 0 C1.65 0 3.3 0 5 0 C5.91592004 2.48385095 6.13535275 3.64122584 5.18652344 6.15625 C4.52958496 7.31640625 4.52958496 7.31640625 3.859375 8.5 C3.37057861 9.37809326 2.88178223 10.25618652 2.37817383 11.16088867 C1.84087646 12.09779541 1.3035791 13.03470215 0.75 14 C0.20947998 14.96591064 -0.33104004 15.93182129 -0.88793945 16.92700195 C-2.01709766 18.94437653 -3.15105836 20.95906978 -4.28955078 22.97119141 C-6.9553617 27.69172384 -9.57128791 32.43936458 -12.1875 37.1875 C-12.65639648 38.02990234 -13.12529297 38.87230469 -13.60839844 39.74023438 C-14.04055664 40.52076172 -14.47271484 41.30128906 -14.91796875 42.10546875 C-15.29719482 42.78762451 -15.6764209 43.46978027 -16.06713867 44.17260742 C-17.13149687 46.14501191 -17.13149687 46.14501191 -18 49 C-18.99 49 -19.98 49 -21 49 C-22.40335235 46.43489809 -23.80313726 43.86806946 -25.1953125 41.296875 C-26.44079311 39.02158143 -27.70202495 36.76494629 -28.9921875 34.515625 C-29.63414063 33.37609375 -30.27609375 32.2365625 -30.9375 31.0625 C-31.54464844 30.00160156 -32.15179688 28.94070313 -32.77734375 27.84765625 C-34 25 -34 25 -33.69140625 22.62109375 C-33.34916016 21.81865234 -33.34916016 21.81865234 -33 21 C-30.73828125 21.06640625 -30.73828125 21.06640625 -28 22 C-26.46453081 24.34923816 -25.32241871 26.40961263 -24.1875 28.9375 C-23.87619141 29.58396484 -23.56488281 30.23042969 -23.24414062 30.89648438 C-21 35.64617102 -21 35.64617102 -21 38 C-17.17548707 34.88373021 -15.50879865 31.22191275 -13.43359375 26.87109375 C-11.32165139 22.64145441 -8.88363591 18.619019 -6.453125 14.56640625 C-4.89575666 12.00768395 -4.89575666 12.00768395 -4 9 C-3.34 9 -2.68 9 -2 9 C-1.34 6.03 -0.68 3.06 0 0 Z " fill="#48656E" transform="translate(71,320)"/>
<path d="M0 0 C1.29808594 -0.00257812 2.59617188 -0.00515625 3.93359375 -0.0078125 C6.96361541 0.10308173 9.62748638 0.41245334 12.5625 1.125 C12.5625 1.785 12.5625 2.445 12.5625 3.125 C15.21478812 4.20025194 17.84618454 5.21956151 20.5625 6.125 C21.0575 7.61 21.0575 7.61 21.5625 9.125 C18.79748164 8.0677871 16.1913586 6.93169719 13.5625 5.5625 C5.42313451 1.66238737 -2.84670249 2.55609539 -11.19921875 5.3359375 C-11.93785156 5.59632812 -12.67648438 5.85671875 -13.4375 6.125 C-14.9534375 6.62 -14.9534375 6.62 -16.5 7.125 C-18.79092991 8.02198316 -18.79092991 8.02198316 -19.4375 11.125 C-20.4275 11.455 -21.4175 11.785 -22.4375 12.125 C-22.7675 13.115 -23.0975 14.105 -23.4375 15.125 C-24.4275 15.62 -24.4275 15.62 -25.4375 16.125 C-26.14241267 18.44706525 -26.80962429 20.78093068 -27.4375 23.125 C-27.7675 23.455 -28.0975 23.785 -28.4375 24.125 C-28.67403523 26.65096259 -28.85923692 29.15607207 -29 31.6875 C-29.04318359 32.39841797 -29.08636719 33.10933594 -29.13085938 33.84179688 C-29.23721777 35.60261912 -29.33788846 37.3637832 -29.4375 39.125 C-28.7775 39.125 -28.1175 39.125 -27.4375 39.125 C-27.045625 40.341875 -26.65375 41.55875 -26.25 42.8125 C-24.7547242 46.8813755 -22.59136268 49.14161638 -19.4375 52.125 C-19.4375 53.115 -19.4375 54.105 -19.4375 55.125 C-18.87546875 55.25777344 -18.3134375 55.39054687 -17.734375 55.52734375 C-15.34383847 56.14937111 -13.02714225 56.89615041 -10.6875 57.6875 C-9.88828125 57.95691406 -9.0890625 58.22632813 -8.265625 58.50390625 C-7.66234375 58.70886719 -7.0590625 58.91382813 -6.4375 59.125 C-6.7675 60.115 -7.0975 61.105 -7.4375 62.125 C-1.48482295 61.78980071 2.42644579 61.23366439 7.5625 58.125 C10.28331107 57.8688031 12.82070566 57.98558673 15.5625 58.125 C15.995625 57.196875 15.995625 57.196875 16.4375 56.25 C17.5625 54.125 17.5625 54.125 19.5625 52.125 C20.5525 52.125 21.5425 52.125 22.5625 52.125 C22.8925 50.475 23.2225 48.825 23.5625 47.125 C25.5425 46.63 25.5425 46.63 27.5625 46.125 C27.5625 44.145 27.5625 42.165 27.5625 40.125 C28.2225 40.125 28.8825 40.125 29.5625 40.125 C29.68016421 33.06514727 29.22838578 26.15247312 28.5625 19.125 C29.2225 19.455 29.8825 19.785 30.5625 20.125 C33.33269354 28.43558062 32.50240438 39.29956029 28.76171875 47.1484375 C27.04109012 49.98439218 25.10685503 52.00470414 22.5625 54.125 C22.06363281 54.57746094 21.56476563 55.02992188 21.05078125 55.49609375 C18.36407404 57.88502989 16.20203422 59.70505374 12.5625 60.125 C12.5625 60.785 12.5625 61.445 12.5625 62.125 C10.24725961 63.2826202 8.89133938 63.25402305 6.31640625 63.2578125 C5.47916016 63.25910156 4.64191406 63.26039063 3.77929688 63.26171875 C2.46541992 63.25591797 2.46541992 63.25591797 1.125 63.25 C0.25294922 63.25386719 -0.61910156 63.25773437 -1.51757812 63.26171875 C-2.35611328 63.26042969 -3.19464844 63.25914062 -4.05859375 63.2578125 C-4.8261499 63.25668457 -5.59370605 63.25555664 -6.38452148 63.25439453 C-8.4375 63.125 -8.4375 63.125 -11.4375 62.125 C-11.4375 61.465 -11.4375 60.805 -11.4375 60.125 C-12.30375 59.898125 -13.17 59.67125 -14.0625 59.4375 C-21.13730026 56.68618879 -25.88053403 51.35426274 -29.125 44.625 C-32.26472973 36.25238738 -32.90937755 26.48906864 -29.4375 18.125 C-27.59810652 15.31721996 -25.54871339 12.73102902 -23.4375 10.125 C-22.81875 9.2175 -22.2 8.31 -21.5625 7.375 C-15.68615643 1.15298916 -8.19989244 -0.0162535 0 0 Z " fill="#F1D090" transform="translate(115.4375,112.875)"/>
<path d="M0 0 C38.94 0 77.88 0 118 0 C118 1.32 118 2.64 118 4 C79.06 3.67 40.12 3.34 0 3 C0 2.01 0 1.02 0 0 Z " fill="#BED2D9" transform="translate(232,161)"/>
<path d="M0 0 C0.66 0 1.32 0 2 0 C2.33 1.65 2.66 3.3 3 5 C65.37 5.495 65.37 5.495 129 6 C129 6.66 129 7.32 129 8 C112.49307077 8.02334602 95.98614688 8.04098757 79.47920513 8.05181217 C71.81498857 8.0569715 64.15078225 8.06400731 56.48657227 8.07543945 C49.80753171 8.08539736 43.12849857 8.09185607 36.44945079 8.09408849 C32.91198197 8.09539371 29.37453439 8.0984677 25.83707237 8.10573006 C21.89097059 8.11376586 17.9448897 8.11399042 13.9987793 8.11352539 C12.82202133 8.11712067 11.64526337 8.12071594 10.43284607 8.12442017 C9.36012451 8.1230455 8.28740295 8.12167084 7.18217468 8.12025452 C6.24839839 8.12117631 5.3146221 8.1220981 4.35254955 8.12304783 C2 8 2 8 -1 7 C-0.67 4.69 -0.34 2.38 0 0 Z " fill="#687E77" transform="translate(220,137)"/>
<path d="M0 0 C64.845 0.495 64.845 0.495 131 1 C131 1.33 131 1.66 131 2 C125.07740461 3.28366011 119.19526055 3.15508665 113.16723633 3.16113281 C111.98124344 3.16609772 110.79525055 3.17106262 109.57331848 3.17617798 C106.33390038 3.18824426 103.09451826 3.19573225 99.8550818 3.20018864 C97.83050083 3.20312722 95.80592542 3.20723324 93.78134727 3.21169281 C87.44407581 3.22534282 81.10681716 3.23502462 74.76953202 3.2388947 C67.45756564 3.24338524 60.14578528 3.2609894 52.83387548 3.2898953 C47.17600108 3.31148638 41.51817917 3.32159741 35.860264 3.32293582 C32.48267011 3.32398467 29.10525168 3.32991046 25.72770119 3.34775543 C21.9665151 3.36472863 18.20578845 3.36295762 14.44458008 3.35644531 C13.32400208 3.3656601 12.20342407 3.37487488 11.04888916 3.3843689 C9.51591942 3.37601517 9.51591942 3.37601517 7.95198059 3.36749268 C7.06286893 3.36895924 6.17375727 3.3704258 5.25770283 3.3719368 C3 3 3 3 0 0 Z " fill="#92AAAE" transform="translate(24,517)"/>
<path d="M0 0 C79.53 0 159.06 0 241 0 C241 0.33 241 0.66 241 1 C162.13 1.33 83.26 1.66 2 2 C2 2.99 2 3.98 2 5 C1.01 5 0.02 5 -1 5 C-0.67 3.35 -0.34 1.7 0 0 Z " fill="#CEBC87" transform="translate(109,328)"/>
<path d="M0 0 C0.33 0.66 0.66 1.32 1 2 C0.67 2.99 0.34 3.98 0 5 C-78.21 4.67 -156.42 4.34 -237 4 C-237 3.67 -237 3.34 -237 3 C-235.80894307 2.99668985 -234.61788614 2.99337971 -233.39073658 2.98996925 C-205.12346508 2.91096774 -176.85623845 2.82175396 -148.58903994 2.71994839 C-145.11054838 2.70742938 -141.63205651 2.69499662 -138.15356445 2.68261719 C-137.46105338 2.68015119 -136.7685423 2.6776852 -136.05504604 2.67514448 C-124.83901361 2.63541056 -113.6229711 2.60266602 -102.40690932 2.57250018 C-90.89993748 2.54139652 -79.39301272 2.50264368 -67.88608807 2.45720994 C-61.42209546 2.4319307 -54.95813323 2.41015358 -48.49410439 2.39665604 C-42.4129069 2.3838487 -36.33181353 2.3618085 -30.25067329 2.33261681 C-28.01616795 2.32353066 -25.78164583 2.31784839 -23.54712296 2.31578636 C-20.50092632 2.3124712 -17.4550262 2.29701368 -14.40888977 2.2784729 C-13.07668607 2.281375 -13.07668607 2.281375 -11.71756917 2.28433573 C-7.364156 2.24460923 -3.96287429 2.03661897 0 0 Z " fill="#607C83" transform="translate(349,400)"/>
<path d="M0 0 C-0.33 0.99 -0.66 1.98 -1 3 C-120.295 2.505 -120.295 2.505 -242 2 C-242 1.67 -242 1.34 -242 1 C-211.45946213 0.87255781 -180.91892408 0.74515802 -150.37838579 0.61781773 C-146.77585745 0.60279677 -143.17332912 0.58777545 -139.57080078 0.57275391 C-138.85357786 0.56976329 -138.13635493 0.56677268 -137.39739798 0.56369144 C-125.77193445 0.51521571 -114.14647104 0.46671055 -102.52100767 0.41819459 C-90.59936732 0.36844326 -78.67772684 0.31872339 -66.75608623 0.26903296 C-60.05688459 0.24110919 -53.35768302 0.2131707 -46.6584816 0.18519592 C-40.35984181 0.15889525 -34.06120187 0.1326332 -27.7625618 0.10640144 C-25.44454441 0.09674074 -23.12652709 0.08706562 -20.80850983 0.07737541 C-17.65628576 0.0642 -14.50406149 0.05107527 -11.35183716 0.03796387 C-9.9598343 0.03212744 -9.9598343 0.03212744 -8.53971016 0.02617311 C-2.22824242 0 -2.22824242 0 0 0 Z " fill="#627E7F" transform="translate(350,412)"/>
<path d="M0 0 C0.88107422 -0.01611328 1.76214844 -0.03222656 2.66992188 -0.04882812 C7.91269956 -0.0527553 11.48911559 0.45696015 16.0625 3.3125 C16.0625 4.3025 16.0625 5.2925 16.0625 6.3125 C14.7425 5.9825 13.4225 5.6525 12.0625 5.3125 C12.0625 4.6525 12.0625 3.9925 12.0625 3.3125 C-3.4250234 2.568726 -3.4250234 2.568726 -17.9375 7.3125 C-18.5975 7.3125 -19.2575 7.3125 -19.9375 7.3125 C-20.164375 7.84875 -20.39125 8.385 -20.625 8.9375 C-22.35378055 12.06576956 -24.64645262 14.57441899 -26.9375 17.3125 C-31.3714945 23.80513481 -31.53650122 30.64108086 -30.9375 38.3125 C-28.95490826 47.1999802 -24.31343956 53.93656044 -17.9375 60.3125 C-19.9175 60.3125 -21.8975 60.3125 -23.9375 60.3125 C-24.35 59.28125 -24.7625 58.25 -25.1875 57.1875 C-26.31670884 54.51846092 -27.47576063 52.5127985 -29.125 50.0625 C-30.9375 47.3125 -30.9375 47.3125 -30.9375 44.3125 C-31.5975 44.3125 -32.2575 44.3125 -32.9375 44.3125 C-33.02501413 40.43764365 -33.07806435 36.56304357 -33.125 32.6875 C-33.15013672 31.59308594 -33.17527344 30.49867188 -33.20117188 29.37109375 C-33.27459867 21.29414665 -32.00575274 16.0835822 -26.58984375 9.828125 C-23.15719501 6.67950157 -19.05438271 4.4481329 -14.9375 2.3125 C-14.21433594 1.93222656 -13.49117187 1.55195312 -12.74609375 1.16015625 C-8.51235932 -0.11761895 -4.39765906 -0.01601478 0 0 Z " fill="#FAF0DB" transform="translate(115.9375,110.6875)"/>
<path d="M0 0 C0.33 0.99 0.66 1.98 1 3 C0.67 3.33 0.34 3.66 0 4 C-0.09910143 6.12091575 -0.12632361 8.24519379 -0.12698364 10.36842346 C-0.12854363 11.04150305 -0.13010362 11.71458264 -0.13171089 12.40805858 C-0.13572318 14.68034535 -0.13253027 16.95256617 -0.12939453 19.22485352 C-0.13074856 20.84746846 -0.1325285 22.47008309 -0.13470459 24.09269714 C-0.13928126 28.51452927 -0.13748774 32.93633819 -0.1343255 37.35817075 C-0.13180009 41.98291669 -0.13414023 46.6076606 -0.13571167 51.23240662 C-0.13753411 59.00788735 -0.13512645 66.7833586 -0.13037109 74.55883789 C-0.1249417 83.53994401 -0.12668118 92.52102739 -0.1321975 101.50213295 C-0.13674251 109.21092122 -0.13737198 116.91970265 -0.13475883 124.62849182 C-0.13320197 129.23306554 -0.13298583 133.83762859 -0.13629532 138.44220161 C-0.13919369 142.77840927 -0.13716226 147.11458779 -0.13140106 151.45079231 C-0.13008342 153.03902641 -0.1304506 154.62726297 -0.13266373 156.21549606 C-0.13541488 158.39126034 -0.13194587 160.56693255 -0.12698364 162.74269104 C-0.12660662 163.95815896 -0.12622959 165.17362688 -0.12584114 166.42592716 C0.01225185 170.34797039 0.46087646 174.11440916 1 178 C-1 177 -1 177 -2 174 C-2.0965757 171.72414626 -2.13066944 169.44550242 -2.13371277 167.16760254 C-2.1371111 166.11950149 -2.1371111 166.11950149 -2.14057809 165.05022669 C-2.14692015 162.70338964 -2.1460886 160.35661031 -2.14526367 158.00976562 C-2.14825499 156.32948227 -2.15165745 154.6491996 -2.15544128 152.96891785 C-2.16428711 148.40085426 -2.16661961 143.8328094 -2.16725707 139.26473808 C-2.16820562 135.4548601 -2.17188319 131.64498649 -2.17542917 127.83511019 C-2.18357552 118.84986938 -2.18601319 109.8646386 -2.18530273 100.87939453 C-2.18470151 91.60047919 -2.19526187 82.32162191 -2.2110464 73.04272127 C-2.22410523 65.08344133 -2.22948735 57.1241804 -2.22884732 49.16488981 C-2.2285919 44.40790486 -2.2314677 39.65097151 -2.24202538 34.89399719 C-2.25167881 30.42232879 -2.25180457 25.95076163 -2.24450874 21.47908974 C-2.24345954 19.83553737 -2.24584556 18.19197878 -2.2518692 16.54843712 C-2.2595448 14.3096367 -2.25497411 12.07118983 -2.24723816 9.83239746 C-2.24778293 8.57804649 -2.24832769 7.32369553 -2.24888897 6.03133392 C-2 3 -2 3 0 0 Z " fill="#CDDFE6" transform="translate(26,86)"/>
<path d="M0 0 C0 0.66 0 1.32 0 2 C56.43 2 112.86 2 171 2 C171 2.33 171 2.66 171 3 C148.4781526 3.04666576 125.95631315 3.08196218 103.43442726 3.10362434 C92.9777528 3.1139486 82.52110834 3.12803083 72.06445312 3.15087891 C62.9532613 3.17077766 53.84209119 3.18370806 44.73087823 3.18817699 C39.90400975 3.19079035 35.07720339 3.19695659 30.25035477 3.21146011 C25.71143495 3.22498857 21.17260314 3.22923229 16.63366508 3.22621536 C14.96389094 3.22676766 13.29411399 3.23077322 11.62435722 3.23841095 C9.35221441 3.24829827 7.08040796 3.2459919 4.80825806 3.24050903 C2.8973812 3.24327441 2.8973812 3.24327441 0.94790077 3.24609566 C-2 3 -2 3 -4 1 C-2 0 -2 0 0 0 Z " fill="#DAE8EE" transform="translate(31,263)"/>
<path d="M0 0 C0.33 0 0.66 0 1 0 C0.39689821 9.5076631 -0.71285347 18.88405055 -2.0625 28.3125 C-2.25102172 29.65033844 -2.43917452 30.98822893 -2.62695312 32.32617188 C-3.08103375 35.5513086 -3.53877029 38.7758793 -4 42 C-4.33 42 -4.66 42 -5 42 C-5.90651151 36.1076752 -6.02845468 30.49916777 -5.83984375 24.5390625 C-5.7298497 21.82935655 -5.7298497 21.82935655 -8 20 C-7.8305444 16.78034351 -7.40071376 15.38778751 -5.0625 13.125 C-2.34238549 10.32245778 -1.87361966 7.76328469 -1 4 C-0.79375 3.195625 -0.5875 2.39125 -0.375 1.5625 C-0.189375 0.7890625 -0.189375 0.7890625 0 0 Z " fill="#9CB0B6" transform="translate(417,339)"/>
<path d="M0 0 C4.65989326 1.33139807 8.32271795 2.80236343 12 6 C17.12316907 15.61204101 19.14445679 27.90841593 16.328125 38.53515625 C15.5 40.4375 15.5 40.4375 14 43 C13.34 43 12.68 43 12 43 C12.33 42.01 12.66 41.02 13 40 C15.17706728 31.14974823 15.64489541 20.02663776 11.2890625 11.83203125 C9.18417323 8.84053711 6.67252289 6.49030542 4 4 C4 3.34 4 2.68 4 2 C2.68 1.67 1.36 1.34 0 1 C0 0.67 0 0.34 0 0 Z " fill="#FAEDD4" transform="translate(132,117)"/>
<path d="M0 0 C0.66 0.33 1.32 0.66 2 1 C1.67 15.19 1.34 29.38 1 44 C-1.25 39.5 -1.25 39.5 -1.31884766 35.96582031 C-1.33871735 35.18531311 -1.35858704 34.40480591 -1.37905884 33.60064697 C-1.39061005 32.76821472 -1.40216125 31.93578247 -1.4140625 31.078125 C-1.43342865 30.21813904 -1.4527948 29.35815308 -1.4727478 28.47210693 C-1.53241814 25.73150479 -1.5788786 22.99086036 -1.625 20.25 C-1.66319134 18.38930483 -1.70224375 16.52862712 -1.7421875 14.66796875 C-1.83810935 10.11212136 -1.92218668 5.55619121 -2 1 C-1.34 0.67 -0.68 0.34 0 0 Z " fill="#688A92" transform="translate(27,412)"/>
<path d="M0 0 C2.04703076 0.00538628 4.09384481 0.00001488 6.14086914 -0.00634766 C7.44217773 -0.00505859 8.74348633 -0.00376953 10.08422852 -0.00244141 C11.85382935 -0.00074951 11.85382935 -0.00074951 13.65917969 0.00097656 C16.51628953 0.11670207 19.07771795 0.47315372 21.85375977 1.13037109 C18.73032314 3.21266218 18.31523054 3.36807566 14.84204102 3.10693359 C14.0847168 3.05537109 13.32739258 3.00380859 12.54711914 2.95068359 C11.36859375 2.85400391 11.36859375 2.85400391 10.16625977 2.75537109 C9.36897461 2.69865234 8.57168945 2.64193359 7.75024414 2.58349609 C5.78402395 2.44221081 3.81877153 2.28757203 1.85375977 2.13037109 C1.85375977 2.46037109 1.85375977 2.79037109 1.85375977 3.13037109 C-5.90117537 3.22965191 -13.45692739 3.19096597 -21.14624023 2.13037109 C-21.14624023 1.80037109 -21.14624023 1.47037109 -21.14624023 1.13037109 C-14.09935703 -0.00651403 -7.12836798 -0.02236486 0 0 Z " fill="#7D99A2" transform="translate(176.146240234375,518.86962890625)"/>
<path d="M0 0 C6.39651259 -0.15366997 12.27698902 0.35153626 18.5625 1.5 C19.38041016 1.64308594 20.19832031 1.78617188 21.04101562 1.93359375 C23.02854504 2.28228312 25.01445896 2.64016085 27 3 C27 3.99 27 4.98 27 6 C17.93865155 5.35878726 8.99147995 4.26519458 0 3 C0 2.01 0 1.02 0 0 Z " fill="#A8B6BA" transform="translate(172,520)"/>
<path d="M0 0 C0.33 0 0.66 0 1 0 C0.45596557 10.0932704 -0.53875338 19.99826344 -2 30 C-2.99 29.67 -3.98 29.34 -5 29 C-4.85970581 26.8537974 -4.71261836 24.70803782 -4.5625 22.5625 C-4.48128906 21.36753906 -4.40007812 20.17257812 -4.31640625 18.94140625 C-4 16 -4 16 -3 15 C-2.71437237 12.25706804 -2.55160727 9.51391162 -2.37890625 6.76171875 C-2.00943111 4.06874012 -1.36432437 2.32542737 0 0 Z " fill="#B4BDC0" transform="translate(403,440)"/>
<path d="M0 0 C1.02717488 3.08152464 1.0119573 4.92019914 0.875 8.125 C0.77682608 18.72778375 5.23342226 26.1924103 12 34 C12.66 34.66 13.32 35.32 14 36 C12.02 36 10.04 36 8 36 C7.5875 34.96875 7.175 33.9375 6.75 32.875 C5.62079116 30.20596092 4.46173937 28.2002985 2.8125 25.75 C1 23 1 23 1 20 C0.34 20 -0.32 20 -1 20 C-1.02888514 16.85418577 -1.04675923 13.70840531 -1.0625 10.5625 C-1.07087891 9.66466797 -1.07925781 8.76683594 -1.08789062 7.84179688 C-1.09111328 6.98779297 -1.09433594 6.13378906 -1.09765625 5.25390625 C-1.10551147 4.06776733 -1.10551147 4.06776733 -1.11352539 2.85766602 C-1 1 -1 1 0 0 Z " fill="#FBE8C7" transform="translate(84,135)"/>
<path d="M0 0 C0.79940524 2.23833466 1.09954248 3.6142729 0.5 5.9375 C-1.42430476 8.58341904 -3.71958141 10.07473713 -6.44140625 11.8515625 C-8.15572515 12.93246934 -8.15572515 12.93246934 -9 15 C-10.98 15 -12.96 15 -15 15 C-15 14.34 -15 13.68 -15 13 C-13.390625 11.8515625 -13.390625 11.8515625 -11.25 10.625 C-8.03773212 8.71239527 -5.60094036 6.70097653 -3 4 C-2.34 4 -1.68 4 -1 4 C-0.67 2.68 -0.34 1.36 0 0 Z " fill="#F8EFD3" transform="translate(143,160)"/>
<path d="M0 0 C1.485 0.99 1.485 0.99 3 2 C5.72783078 2.76974834 8.43187795 3.47520266 11.1875 4.125 C11.93708984 4.30675781 12.68667969 4.48851562 13.45898438 4.67578125 C15.30470781 5.12251686 17.15219132 5.5619694 19 6 C15.8250906 7.9078584 13.89414789 8.1609041 10.25 7.625 C9.45078125 7.51414062 8.6515625 7.40328125 7.828125 7.2890625 C7.22484375 7.19367187 6.6215625 7.09828125 6 7 C5.67 7.66 5.34 8.32 5 9 C4.938125 8.38125 4.87625 7.7625 4.8125 7.125 C4.171081 4.72238859 4.171081 4.72238859 1.4375 3.75 C0.633125 3.5025 -0.17125 3.255 -1 3 C-0.67 2.01 -0.34 1.02 0 0 Z " fill="#96A7AE" transform="translate(408,33)"/>
<path d="M0 0 C0.33 0 0.66 0 1 0 C0.4262611 9.08923201 -0.61050442 18.00200434 -2 27 C-2.33 27 -2.66 27 -3 27 C-4.11666046 19.67967033 -5.40885132 9.81770263 -2 3 C-1.34 3.33 -0.68 3.66 0 4 C0 2.68 0 1.36 0 0 Z " fill="#B7BEC1" transform="translate(407,412)"/>
<path d="M0 0 C2.375 0.0625 2.375 0.0625 5 1 C6.875 3.9375 6.875 3.9375 8 7 C7.67 7.66 7.34 8.32 7 9 C3 9 3 9 1.3125 7.8125 C-0.31866923 5.55993297 -0.71076787 3.74770527 -1 1 C-0.67 0.67 -0.34 0.34 0 0 Z " fill="#506B74" transform="translate(38,341)"/>
<path d="M0 0 C1.1055189 0.93590504 2.20935453 1.87379858 3.3125 2.8125 C3.92738281 3.33457031 4.54226563 3.85664062 5.17578125 4.39453125 C5.77777344 4.92433594 6.37976563 5.45414062 7 6 C7.57105469 6.49886719 8.14210938 6.99773438 8.73046875 7.51171875 C10 9 10 9 10 12 C9.01 12.33 8.02 12.66 7 13 C6.34 11.02 5.68 9.04 5 7 C4.01 7.33 3.02 7.66 2 8 C1.87625 7.195625 1.7525 6.39125 1.625 5.5625 C1.315625 4.2940625 1.315625 4.2940625 1 3 C0.34 2.67 -0.32 2.34 -1 2 C-0.67 1.34 -0.34 0.68 0 0 Z " fill="#9FADB1" transform="translate(276,0)"/>
<path d="M0 0 C0.66 0 1.32 0 2 0 C2.33 0.66 2.66 1.32 3 2 C3.99 1.34 4.98 0.68 6 0 C6.33 4.62 6.66 9.24 7 14 C4.10225504 11.10225504 3.22244591 9.58083485 1.8125 5.875 C1.46832031 4.98554688 1.12414062 4.09609375 0.76953125 3.1796875 C0 1 0 1 0 0 Z " fill="#6F8A92" transform="translate(0,493)"/>
<path d="M0 0 C8.25 0.33 16.5 0.66 25 1 C25 1.33 25 1.66 25 2 C21.62511542 2.16905897 18.25007637 2.33481769 14.875 2.5 C13.92367188 2.54769531 12.97234375 2.59539063 11.9921875 2.64453125 C7.32313191 2.87149923 2.67636296 3.06298132 -2 3 C-1.34 2.67 -0.68 2.34 0 2 C0 1.34 0 0.68 0 0 Z " fill="#A7B4B9" transform="translate(336,17)"/>
<path d="M0 0 C0.33 0 0.66 0 1 0 C0.49656013 7.02673515 -0.04187968 14.01940909 -1 21 C-1.66 20.67 -2.32 20.34 -3 20 C-3.02725341 18.2709226 -3.04650987 16.54171824 -3.0625 14.8125 C-3.07410156 13.84957031 -3.08570313 12.88664062 -3.09765625 11.89453125 C-3.00486622 9.14423487 -2.62111685 6.67520409 -2 4 C-1.34 4 -0.68 4 0 4 C0 2.68 0 1.36 0 0 Z " fill="#A9B4B5" transform="translate(399,471)"/>
<path d="M0 0 C0.33 0 0.66 0 1 0 C0.88482579 2.35500948 0.75812022 4.70849073 0.625 7.0625 C0.55539062 8.37347656 0.48578125 9.68445313 0.4140625 11.03515625 C0.00194564 14.98136957 -0.79756567 18.24117073 -2 22 C-2.33 22 -2.66 22 -3 22 C-2.88525534 19.45749979 -2.7585303 16.91652662 -2.625 14.375 C-2.5940625 13.66214844 -2.563125 12.94929688 -2.53125 12.21484375 C-2.28979845 7.82847392 -1.60657269 4.1405166 0 0 Z " fill="#95A0A6" transform="translate(449,101)"/>
<path d="M0 0 C7.59 0.33 15.18 0.66 23 1 C23 1.33 23 1.66 23 2 C20.69 2 18.38 2 16 2 C16 2.66 16 3.32 16 4 C13.89505699 3.91291962 11.79097858 3.80474307 9.6875 3.6875 C7.92986328 3.60048828 7.92986328 3.60048828 6.13671875 3.51171875 C3 3 3 3 0 0 Z " fill="#A4B2BE" transform="translate(309,15)"/>
<path d="M0 0 C0.33 0.66 0.66 1.32 1 2 C-7.91 2 -16.82 2 -26 2 C-23.03732714 0.02488476 -22.28326223 -0.27071266 -18.9453125 -0.44921875 C-17.77548828 -0.51399414 -17.77548828 -0.51399414 -16.58203125 -0.58007812 C-15.77121094 -0.61552734 -14.96039063 -0.65097656 -14.125 -0.6875 C-13.32191406 -0.73455078 -12.51882812 -0.78160156 -11.69140625 -0.83007812 C-3.79247351 -1.22697672 -3.79247351 -1.22697672 0 0 Z " fill="#BDCBC9" transform="translate(129,179)"/>
<path d="M0 0 C0.66 1.32 1.32 2.64 2 4 C2.66 4 3.32 4 4 4 C3.67 5.98 3.34 7.96 3 10 C1.68 9.67 0.36 9.34 -1 9 C-1 7.68 -1 6.36 -1 5 C-1.33 4.01 -1.66 3.02 -2 2 C-1.34 2 -0.68 2 0 2 C0 1.34 0 0.68 0 0 Z " fill="#98ABAF" transform="translate(396,465)"/>
<path d="M0 0 C0.33 0 0.66 0 1 0 C0.85780436 2.20857055 0.71108153 4.41684987 0.5625 6.625 C0.48128906 7.85476563 0.40007812 9.08453125 0.31640625 10.3515625 C0.03336056 13.61532388 -0.41038953 16.77943859 -1 20 C-1.33 20 -1.66 20 -2 20 C-3.09998366 13.15565722 -3.86377943 6.18204709 0 0 Z " fill="#C6CCD0" transform="translate(414,361)"/>
<path d="M0 0 C0.33 0 0.66 0 1 0 C1.02715383 1.74991334 1.04646551 3.49994945 1.0625 5.25 C1.07410156 6.22453125 1.08570313 7.1990625 1.09765625 8.203125 C1.01195577 10.65758678 0.70706066 12.66168914 0 15 C-0.66 15 -1.32 15 -2 15 C-2.3690205 4.44191344 -2.3690205 4.44191344 0 0 Z " fill="#9AA5AB" transform="translate(442,150)"/>
<path d="M0 0 C5.94 0.33 11.88 0.66 18 1 C18 1.66 18 2.32 18 3 C5.33029613 3.3690205 5.33029613 3.3690205 0 1 C0 0.67 0 0.34 0 0 Z " fill="#94A2AA" transform="translate(366,19)"/>
<path d="M0 0 C-0.54881057 6.35219042 -1.16511613 12.67873638 -2 19 C-2.33 19 -2.66 19 -3 19 C-3.82787644 12.78455839 -4.23572229 7.17861145 -3 1 C-1 0 -1 0 0 0 Z " fill="#BEC7CB" transform="translate(434,223)"/>
<path d="M0 0 C3.3 0.33 6.6 0.66 10 1 C10 1.99 10 2.98 10 4 C6.04 3.67 2.08 3.34 -2 3 C-1.34 2.01 -0.68 1.02 0 0 Z " fill="#B2BCBF" transform="translate(189,522)"/>
<path d="M0 0 C4.95 0 9.9 0 15 0 C15 0.99 15 1.98 15 3 C12.87561661 3.08078641 10.7503677 3.13909141 8.625 3.1875 C7.44164062 3.22230469 6.25828125 3.25710938 5.0390625 3.29296875 C3.53472656 3.14794922 3.53472656 3.14794922 2 3 C1.34 2.01 0.68 1.02 0 0 Z " fill="#7698A1" transform="translate(193,519)"/>
<path d="M0 0 C0.33 0 0.66 0 1 0 C0.67 4.95 0.34 9.9 0 15 C-0.33 15 -0.66 15 -1 15 C-1.144375 14.2575 -1.28875 13.515 -1.4375 12.75 C-1.91855534 10.09708653 -1.91855534 10.09708653 -2.6875 8 C-3.12375244 5.20798437 -2.21590137 3.49935282 -1 1 C-0.67 0.67 -0.34 0.34 0 0 Z " fill="#C0C7C9" transform="translate(411,382)"/>
<path d="M0 0 C0.33 0 0.66 0 1 0 C0.49656013 7.02673515 -0.04187968 14.01940909 -1 21 C-1.33 21 -1.66 21 -2 21 C-2 15.39 -2 9.78 -2 4 C-1.34 4 -0.68 4 0 4 C0 2.68 0 1.36 0 0 Z " fill="#CBCFD1" transform="translate(421,309)"/>
<path d="M0 0 C3.63 0 7.26 0 11 0 C11 0.66 11 1.32 11 2 C10.39671875 2.13277344 9.7934375 2.26554688 9.171875 2.40234375 C8.37265625 2.57894531 7.5734375 2.75554687 6.75 2.9375 C5.96109375 3.11152344 5.1721875 3.28554687 4.359375 3.46484375 C2.23121297 3.947556 0.11467158 4.46163178 -2 5 C-1.34 3.35 -0.68 1.7 0 0 Z " fill="#E8F0EF" transform="translate(101,177)"/>
<path d="M0 0 C0 0.99 0 1.98 0 3 C-5.28 2.67 -10.56 2.34 -16 2 C-16 1.67 -16 1.34 -16 1 C-10.59255982 0.22750855 -5.46137814 -0.09752461 0 0 Z " fill="#AAB6BB" transform="translate(171,519)"/>
<path d="M0 0 C0.33 0 0.66 0 1 0 C0.88630789 2.45933991 0.75957349 4.9167909 0.625 7.375 C0.5940625 8.07367188 0.563125 8.77234375 0.53125 9.4921875 C0.2265625 14.7734375 0.2265625 14.7734375 -2 17 C-3.33111019 14.33777962 -2.95269869 12.57780926 -2.6875 9.625 C-2.56955078 8.19027344 -2.56955078 8.19027344 -2.44921875 6.7265625 C-2.01542378 4.09361562 -1.33055384 2.29181111 0 0 Z " fill="#BDC8C9" transform="translate(403,440)"/>
<path d="M0 0 C0.33 0 0.66 0 1 0 C0.88652381 1.97986082 0.7589065 3.95891598 0.625 5.9375 C0.52058594 7.59072266 0.52058594 7.59072266 0.4140625 9.27734375 C0.27742188 10.17582031 0.14078125 11.07429687 0 12 C-0.99 12.495 -0.99 12.495 -2 13 C-1.979375 12.0925 -1.95875 11.185 -1.9375 10.25 C-1.9889755 7.57327412 -2.2215017 5.53011948 -3 3 C-2.01 2.67 -1.02 2.34 0 2 C0 1.34 0 0.68 0 0 Z " fill="#97A4A7" transform="translate(446,125)"/>
<path d="M0 0 C5.19822672 1.36144033 8.09543873 3.46730171 12 7 C10.1875 7.6875 10.1875 7.6875 8 8 C6.25 6.6875 6.25 6.6875 5 5 C5 4.34 5 3.68 5 3 C3.35 2.67 1.7 2.34 0 2 C0 1.34 0 0.68 0 0 Z " fill="#92A7AC" transform="translate(394,24)"/>
<path d="M0 0 C0.33 1.32 0.66 2.64 1 4 C1.99 4 2.98 4 4 4 C4.33 3.01 4.66 2.02 5 1 C6 4 6 4 5.0625 6.1875 C4.5365625 7.0846875 4.5365625 7.0846875 4 8 C1.525 7.01 1.525 7.01 -1 6 C-0.67 4.02 -0.34 2.04 0 0 Z " fill="#517A83" transform="translate(1,24)"/>
<path d="M0 0 C2.09785412 2.55390936 3.78252874 4.62919544 4 8 C2.5625 9.75 2.5625 9.75 1 11 C0.34 10.67 -0.32 10.34 -1 10 C-1 9.34 -1 8.68 -1 8 C-0.34 8 0.32 8 1 8 C0.67 7.34 0.34 6.68 0 6 C-0.039992 4.00039988 -0.04346799 1.99952758 0 0 Z " fill="#4E6A73" transform="translate(46,350)"/>
<path d="M0 0 C-0.33 0.99 -0.66 1.98 -1 3 C-4.96 2.67 -8.92 2.34 -13 2 C-13 1.67 -13 1.34 -13 1 C-8.59085217 -0.10228696 -4.51617599 -0.07654536 0 0 Z " fill="#ABBDBE" transform="translate(266,532)"/>
<path d="M0 0 C0.33 0 0.66 0 1 0 C0.67 4.95 0.34 9.9 0 15 C-2 13 -2 13 -2.25 9.1875 C-2.17480324 5.74724834 -1.55549361 3.11098721 0 0 Z " fill="#C7D0D3" transform="translate(426,272)"/>
<path d="M0 0 C0.33 0.99 0.66 1.98 1 3 C3.00016466 4.20882096 3.00016466 4.20882096 5 5 C5 5.66 5 6.32 5 7 C0.69235185 5.43358249 -3.06171464 3.31663844 -7 1 C-7 0.67 -7 0.34 -7 0 C-2.25 -1.125 -2.25 -1.125 0 0 Z " fill="#CEDAE0" transform="translate(146,185)"/>
<path d="M0 0 C3.465 1.485 3.465 1.485 7 3 C6.67 3.99 6.34 4.98 6 6 C5.34 6 4.68 6 4 6 C3.01 6.495 3.01 6.495 2 7 C2 6.01 2 5.02 2 4 C1.34 4 0.68 4 0 4 C0 2.68 0 1.36 0 0 Z " fill="#507783" transform="translate(0,489)"/>
<path d="M0 0 C0.33 0 0.66 0 1 0 C0.67 4.29 0.34 8.58 0 13 C-0.99 13 -1.98 13 -3 13 C-2.52060632 8.28596212 -2.03165952 4.33420699 0 0 Z " fill="#BEC6C9" transform="translate(417,339)"/>
<path d="M0 0 C2.64 0.33 5.28 0.66 8 1 C8 2.65 8 4.3 8 6 C1.125 2.25 1.125 2.25 0 0 Z " fill="#7D8F9A" transform="translate(11,511)"/>
<path d="M0 0 C-0.33 4.29 -0.66 8.58 -1 13 C-3.35333796 8.29332409 -3.17102038 6.1306114 -3 1 C-1 0 -1 0 0 0 Z " fill="#C6CCCF" transform="translate(397,493)"/>
<path d="M0 0 C0.66 0 1.32 0 2 0 C2.36923077 7.38461538 2.36923077 7.38461538 0.5 10.5 C0.005 10.995 -0.49 11.49 -1 12 C-1.08159574 7.83861737 -0.98248524 4.0527516 0 0 Z " fill="#ABB7BB" transform="translate(414,352)"/>
<path d="M0 0 C0.99 0 1.98 0 3 0 C2.38461538 7.50769231 2.38461538 7.50769231 0.4375 10 C-0.036875 10.33 -0.51125 10.66 -1 11 C-1.125 3.375 -1.125 3.375 0 0 Z " fill="#97A8AB" transform="translate(422,285)"/>
<path d="M0 0 C0.99 0.33 1.98 0.66 3 1 C0.69 3.31 -1.62 5.62 -4 8 C-4.33 7.01 -4.66 6.02 -5 5 C-3.35 3.35 -1.7 1.7 0 0 Z " fill="#D5E2E8" transform="translate(78,192)"/>
<path d="M0 0 C0.33 0 0.66 0 1 0 C0.67 4.29 0.34 8.58 0 13 C-0.99 12.67 -1.98 12.34 -3 12 C-2.67 9.69 -2.34 7.38 -2 5 C-1.34 5 -0.68 5 0 5 C0 3.35 0 1.7 0 0 Z " fill="#C5CECF" transform="translate(409,398)"/>
<path d="M0 0 C3 3.75 3 3.75 3 6 C2.34 6 1.68 6 1 6 C0.34 7.32 -0.32 8.64 -1 10 C-1.625 8.125 -1.625 8.125 -2 6 C-1.34 5.34 -0.68 4.68 0 4 C0 2.68 0 1.36 0 0 Z " fill="#506E73" transform="translate(46,433)"/>
<path d="M0 0 C0.99 0.66 1.98 1.32 3 2 C1.7260411 4.03833424 0.38938077 6.03852126 -1 8 C-1.66 8 -2.32 8 -3 8 C-2.67 6.35 -2.34 4.7 -2 3 C-1.34 3 -0.68 3 0 3 C0 2.01 0 1.02 0 0 Z " fill="#91ACB6" transform="translate(53,350)"/>
<path d="M0 0 C0.66 0.99 1.32 1.98 2 3 C0.02 5.64 -1.96 8.28 -4 11 C-4 7.80389448 -3.45328458 6.58282374 -2 3.8125 C-1.62875 3.09707031 -1.2575 2.38164062 -0.875 1.64453125 C-0.441875 0.83048828 -0.441875 0.83048828 0 0 Z " fill="#A4BAC2" transform="translate(57,438)"/>
<path d="M0 0 C0 0.66 0 1.32 0 2 C-0.66 2 -1.32 2 -2 2 C-2 2.66 -2 3.32 -2 4 C-3.98 4 -5.96 4 -8 4 C-5.52914451 0.29371676 -4.37054922 0 0 0 Z " fill="#F5CB7F" transform="translate(126,171)"/>
<path d="M0 0 C-0.33 2.31 -0.66 4.62 -1 7 C-1.99 6.67 -2.98 6.34 -4 6 C-4 4.68 -4 3.36 -4 2 C-1 0 -1 0 0 0 Z " fill="#97A5AB" transform="translate(393,511)"/>
<path d="M0 0 C0.33 0 0.66 0 1 0 C0.67 4.29 0.34 8.58 0 13 C-0.33 13 -0.66 13 -1 13 C-2 6.375 -2 6.375 -2 3 C-1.34 3.33 -0.68 3.66 0 4 C0 2.68 0 1.36 0 0 Z " fill="#D3D9DB" transform="translate(407,412)"/>
<path d="M0 0 C3.63 0 7.26 0 11 0 C11 0.33 11 0.66 11 1 C8.69 1 6.38 1 4 1 C4 1.66 4 2.32 4 3 C2.35 2.67 0.7 2.34 -1 2 C-0.67 1.34 -0.34 0.68 0 0 Z " fill="#B3BBC6" transform="translate(321,16)"/>
<path d="M0 0 C-1.44806239 4.34418718 -4.38861564 5.17253236 -8.3125 7.1875 C-8.869375 7.455625 -9.42625 7.72375 -10 8 C-3.56521739 0 -3.56521739 0 0 0 Z " fill="#798C93" transform="translate(18,3)"/>
<path d="M0 0 C0.33 0 0.66 0 1 0 C0.67 4.29 0.34 8.58 0 13 C-0.33 13 -0.66 13 -1 13 C-1.33 10.03 -1.66 7.06 -2 4 C-1.34 4 -0.68 4 0 4 C0 2.68 0 1.36 0 0 Z " fill="#D0D6D8" transform="translate(399,471)"/>
<path d="M0 0 C0.95465783 2.16967689 1.14401212 3.56328793 0.3984375 5.82421875 C-0.35870385 7.5684743 -1.17609198 9.28627131 -2 11 C-2.95465783 8.83032311 -3.14401212 7.43671207 -2.3984375 5.17578125 C-1.64129615 3.4315257 -0.82390802 1.71372869 0 0 Z " fill="#64797F" transform="translate(67,210)"/>
<path d="M0 0 C0.33 0.66 0.66 1.32 1 2 C-1.64 2 -4.28 2 -7 2 C-7 1.34 -7 0.68 -7 0 C-4.30234372 -1.34882814 -2.84835666 -0.80338265 0 0 Z " fill="#C8D7DA" transform="translate(129,179)"/>
<path d="M0 0 C0.99 0 1.98 0 3 0 C3 1.65 3 3.3 3 5 C1.68 5 0.36 5 -1 5 C-0.67 3.35 -0.34 1.7 0 0 Z " fill="#F6C87D" transform="translate(109,170)"/>
<path d="M0 0 C4.455 0.99 4.455 0.99 9 2 C5 4 5 4 2.8125 3.8125 C2.214375 3.544375 1.61625 3.27625 1 3 C0.67 2.01 0.34 1.02 0 0 Z " fill="#C1C9CF" transform="translate(418,37)"/>
<path d="M0 0 C1.485 0.99 1.485 0.99 3 2 C4.9896995 2.39013716 6.99019869 2.73202649 9 3 C9 3.33 9 3.66 9 4 C5.6875 4.6875 5.6875 4.6875 2 5 C0.0625 3.5625 0.0625 3.5625 -1 2 C-0.67 1.34 -0.34 0.68 0 0 Z " fill="#BFC7CC" transform="translate(408,33)"/>
<path d="M0 0 C1.875 0.25 1.875 0.25 4 1 C5.25 3.0625 5.25 3.0625 6 5 C4.125 4.75 4.125 4.75 2 4 C0.75 1.9375 0.75 1.9375 0 0 Z " fill="#566E75" transform="translate(154,199)"/>
<path d="M0 0 C2.88437779 1.29299694 4.87219421 2.65941363 7 5 C5.02 5 3.04 5 1 5 C0.67 3.35 0.34 1.7 0 0 Z " fill="#FCEBD2" transform="translate(91,166)"/>
<path d="M0 0 C2.31 1.98 4.62 3.96 7 6 C6.67 6.66 6.34 7.32 6 8 C4.125 7.375 4.125 7.375 2 6 C0.75 2.875 0.75 2.875 0 0 Z " fill="#F2D196" transform="translate(137,122)"/>
<path d="M0 0 C1.258125 -0.04125 2.51625 -0.0825 3.8125 -0.125 C4.52019531 -0.14820312 5.22789062 -0.17140625 5.95703125 -0.1953125 C8 0 8 0 11 2 C6.70700357 3.26264601 4.12168689 2.62950412 0 1 C0 0.67 0 0.34 0 0 Z " fill="#B3BBC2" transform="translate(366,19)"/>
</svg>
